<?xml version="1.0" encoding="utf-8"?>
<!-- Generator: Adobe Illustrator 12.0.0, SVG Export Plug-In  -->
<!DOCTYPE svg PUBLIC "-//W3C//DTD SVG 1.1//EN" "http://www.w3.org/Graphics/SVG/1.1/DTD/svg11.dtd" [
	<!ENTITY ns_flows "http://ns.adobe.com/Flows/1.0/">
	<!ENTITY ns_svg "http://www.w3.org/2000/svg">
	<!ENTITY ns_xlink "http://www.w3.org/1999/xlink">
]>
<svg  version="1.1" xmlns="&ns_svg;" xmlns:xlink="&ns_xlink;" xmlns:a="http://ns.adobe.com/AdobeSVGViewerExtensions/3.0/"
	 width="611" height="611" viewBox="0.61 0.684 611 611" enable-background="new 0.61 0.684 611 611" xml:space="preserve">
<defs>
</defs>
<line fill="none" stroke="#000000" stroke-linecap="round" stroke-miterlimit="3.8637" x1="469.311" y1="364.323" x2="460.577" y2="362.383"/>
<line fill="none" stroke="#000000" stroke-miterlimit="3.8637" x1="447.206" y1="359.229" x2="442.897" y2="358.053"/>
<line fill="none" stroke="#000000" stroke-miterlimit="3.8637" x1="168.651" y1="356.387" x2="164.237" y2="356.922"/>
<path fill="none" stroke="#000000" stroke-miterlimit="3.8637" d="M127.84,331.913c-1.416-9.816-2.314-25.559-2.088-33.731
	c0.476-16.372,3.42-28.58,5.574-33.125c4.271-9.114,10.197-5.937,17.157-3.748c6.996,2.106,13.968,4.283,13.968,4.283l10.197-17.181
	c0,0-16.64-8.043-25.242-13.397c-8.584-5.366-1.053-14.004,4.284-19.322c5.384-5.378,41.881-48.331,59.205-62.251
	c17.294-14.004,19.197-5.39,25.616,10.721c6.431,16.098,9.662,25.771,20.399,53.672l16.11-3.237c0,0-20.387-55.267-23.635-66.058
	c-3.212-10.697,4.878-13.409,10.22-14.456c2.683-0.524,11.339-3.285,18.317-4.748 M154.933,403.538
	c-6.627-11.064-5.384-19.893,0.547-22.533c5.884-2.713,13.945-7.532,23.059-10.196 M436.948,432.987
	c-8.481,10.755-18.274,20.237-32.22,28.556c-10.614,6.306-54.399,3.011-54.399,3.011l-43.297,51.185l-46.336-50.148
	c0,0-35.397,7.555-51.358-3.047c-13.528-9.007-23.172-17.479-32.375-28.316 M439.423,357.896l-6.46,12.911
	c9.138,2.664,17.69,6.591,23.105,10.195c3.629,2.416,4.641,4.201,4.961,8.104c0.238,2.736-1.951,9.603-1.951,9.603 M330.198,129.072
	c12.612,1.654,18.134,4.307,21.702,5.009c5.401,1.047,13.445,3.759,10.232,14.456c-3.236,10.791-23.653,66.058-23.653,66.058
	l16.134,3.237c10.732-27.902,13.934-37.575,20.369-53.672c6.426-16.11,8.329-24.725,25.652-10.721
	c17.276,13.921,53.804,56.873,59.182,62.251c5.354,5.318,12.874,13.956,4.295,19.322c-8.602,5.354-25.234,13.397-25.234,13.397
	l10.161,17.181c0,0,7.031-2.177,13.969-4.283c6.995-2.189,12.909-5.366,17.181,3.748c2.189,4.545,5.14,16.752,5.616,33.125
	c0.214,8.174-1.333,26.925-2.749,36.754"/>
<path fill="none" stroke="#000000" stroke-width="2" stroke-miterlimit="3.8637" d="M1,305.783C1,137.448,137.46,1,305.789,1
	c168.389,0,304.849,136.448,304.849,304.783c0,168.371-163.126,304.819-304.849,304.819C137.46,610.602,1,474.153,1,305.783z"/>
<path d="M554.288,306.152c0,137.078-111.141,248.22-248.207,248.22c-137.091,0-248.22-111.142-248.22-248.22
	c0-137.066,111.129-248.208,248.22-248.208C443.147,57.945,554.288,169.086,554.288,306.152 M215.416,502.175
	c0,0-3.486,6.626-4.598,11.243c-1.113,4.604-1.292,8.294-1.292,8.294s0.179,1.45,3.855,2.926c3.683,1.477,4.42,0.56,4.42,0.56
	s3.325-2.927,5.705-8.828c2.403-5.912,3.32-9.577,3.32-9.577s2.576,1.296,6.639,2.761c4.04,1.463,6.615,2.011,6.615,2.011
	s-1.66,4.806-2.749,10.149c-1.184,5.639-0.934,10.112-0.934,10.112s1.654,1.666,4.623,2.392c2.939,0.762,4.414,0,4.414,0
	s2.57-2.76,4.408-9.197c1.844-6.449,2.213-9.946,2.213-9.946s2.731,0.987,6.99,2.034c4.616,1.083,6.639,1.083,6.639,1.083
	s-1.16,5.925-1.666,10.125c-0.714,5.984,0.541,10.196,0.541,10.196s1.38,1.631,3.736,2.012c3.909,0.63,5.146-0.298,5.146-0.298
	s2.963-3.271,3.885-14.813c0.934-11.519-0.762-14.646-2.183-16.682c-1.393-2.011-20.762-20.049-38.485-39.264
	c-20.262-21.988-28.525-39.11-28.525-39.11l48.009-4.842c0,0-0.101,5.568-2.802,12.767c-5.623,14.979-10.233,17.313-10.595,20.108
	c-0.482,3.581,1.083,5.449,4.349,6.413c3.278,0.903,9.078-1.333,14.194-2.666c13.701-3.604,25.248-4.854,25.248-4.854l19.168,15.755
	l20.875-16.516c0,0,9.995,2.331,18.24,2.643c8.271,0.309,15.313,0.499,16.526-4.188c1.249-4.854-2.595-11.255-5.604-17.941
	c-3.011-6.677-5.771-12.791-5.771-12.791s8.722,2.188,27.593,4.365c18.857,2.189,27.746,2.499,27.746,2.499
	s-12.315,22.297-30.233,38.516c-5.593,5.021-13.563,14.039-21.201,21.512c-7.64,7.449-14.658,14.146-17.468,17.276
	c-3.379,3.76-2.642,13.563-2.332,17.002c0.644,7.104,2.034,12.791,4.045,14.968c0,0,0.312,0.929,4.366,0.144
	c4.059-0.785,4.51-1.56,4.51-1.56s1.107-5.294,0.333-11.54c-0.784-6.212-1.569-9.187-1.569-9.187s1.569-0.143,7.009-1.393
	c5.46-1.262,6.864-1.88,6.864-1.88s0.643,5.449,2.189,10.138c1.57,4.676,4.354,9.196,4.354,9.196s0.477,1.262,4.688-0.154
	s4.046-2.344,4.046-2.344s0.785-4.045-0.772-10.59c-1.561-6.557-2.653-9.673-2.653-9.673s1.713-0.298,6.854-2.165
	c5.14-1.903,6.4-2.513,6.4-2.513s1.999,5.927,3.427,9.521c2.035,5.128,5.426,8.876,5.426,8.876s0.501,1.095,4.699-0.785
	c4.2-1.868,3.748-2.809,3.748-2.809s0.154-4.511-2.188-10.423c-2.331-5.962-3.735-9.197-3.735-9.197s1.237-0.487,6.224-2.962
	c5.009-2.499,6.556-3.605,6.556-3.605s2.379,5.2,4.354,8.9c2.498,4.664,6.557,8.27,6.557,8.27s0.939,0.772,4.367-1.25
	c3.415-2.021,3.581-3.13,3.581-3.13s-0.32-4.842-3.581-10.743c-3.284-5.926-4.688-8.103-4.688-8.103s1.559-1.107,5.924-3.915
	c4.368-2.809,5.761-4.2,5.761-4.2s3.165,5.01,5.614,8.579c3.118,4.509,7.33,7.305,7.33,7.305s1.261,0.644,4.532-2.011
	c3.261-2.664,2.952-3.581,2.952-3.581s-0.619-3.427-4.212-8.899c-3.57-5.438-6.402-8.258-6.402-8.258s0.797-0.618,5.485-4.651
	c4.664-4.081,5.295-4.984,5.295-4.984s2.642,3.854,6.699,7.769c4.829,4.688,8.091,6.225,8.091,6.225s1.094,0.32,4.224-2.797
	c3.104-3.104,2.486-3.748,2.486-3.748s-1.095-3.105-5.462-8.411c-4.342-5.308-7.174-7.472-7.174-7.472s1.428-1.097,5.474-5.629
	c4.057-4.51,4.199-4.985,4.199-4.985s2.582,3.059,7.316,6.734c6.093,4.651,9.066,5.282,9.066,5.282s0.762,0.619,3.569-2.796
	c2.808-3.45,2.021-3.927,2.021-3.927s-0.785-3.26-6.532-8.245c-5.104-4.378-7.959-6.378-7.959-6.378s1.713-2.034,4.854-6.544
	c3.104-4.544,3.568-5.308,3.568-5.308s3.975,3.012,8.566,6.057c5.592,3.761,9.197,3.761,9.197,3.761s1.083,0.155,3.104-3.284
	c2.023-3.401,1.88-4.199,1.88-4.199s-3.116-3.892-7.494-7.031c-4.355-3.095-9.021-5.594-9.021-5.594s2.022-3.282,4.069-7.174
	c1.999-3.902,2.771-5.771,2.771-5.771s3.272,2.485,9.674,5.14c7.483,3.129,9.52,2.653,9.52,2.653s0.595,0.309,2.796-3.747
	c1.868-3.404,0.939-4.201,0.939-4.201s-2.498-3.271-8.425-6.4c-5.925-3.095-9.352-4.344-9.352-4.344s1.261-2.949,2.975-7.482
	c1.69-4.521,2.165-5.938,2.165-5.938s4.094,2.106,10.139,3.903c7.33,2.177,9.648,1.402,9.648,1.402s1.106,0,2.345-3.568
	c1.261-3.594,0.63-4.545,0.63-4.545s-1.393-2.463-8.27-5.295c-6.854-2.784-10.898-3.428-10.898-3.428s1.237-3.58,2.189-7.328
	c0.928-3.725,1.393-6.545,1.393-6.545s4.08,1.334,9.815,2.487c7.639,1.582,10.446,0.333,10.446,0.333s1.083-0.154,1.868-4.046
	c0.772-3.915,0.153-4.378,0.153-4.378s-1.569-2.201-9.195-4.225c-7.627-2.01-11.077-2.01-11.077-2.01s0.643-3.596,1.26-8.104
	c0.644-4.521,0.786-6.568,0.786-6.568s2.963,1.273,11.064,1.571c8.092,0.32,9.495-0.916,9.495-0.916s1.261-0.785,1.403-4.688
	c0.167-3.891-0.606-4.213-0.606-4.213s-2.985-1.867-10.458-2.961c-7.473-1.084-9.972-0.619-9.972-0.619s0.144-3.903,0-10.756
	c-0.142-6.865-0.464-9.352-0.464-9.352s0.939,0.785,9.959-0.322c9.066-1.082,10.304-2.641,10.304-2.641s1.095-1.082,0.631-4.985
	c-0.477-3.891-1.249-3.891-1.249-3.891s-3.284-1.416-10.446-1.25c-7.163,0.167-10.279,1.083-10.279,1.083s-0.168-2.962-0.94-7.639
	c-0.772-4.676-1.249-6.544-1.249-6.544s4.663-0.131,11.541-2.022c6.854-1.868,8.258-3.427,8.258-3.427s0.856-1.19,0-4.998
	c-0.785-3.427-2.022-3.427-2.022-3.427s-2.498-1.558-9.814-0.452c-7.343,1.095-10.459,2.487-10.459,2.487s-0.785-4.212-2.022-8.257
	c-1.25-4.058-1.714-5.616-1.714-5.616s2.595,0.023,10.447-3.106c8.565-3.462,8.398-5.164,8.398-5.164s0.333-1.559-0.771-4.354
	c-1.071-2.808-2.321-3.617-2.321-3.617s-4.545-0.143-9.994,1.273c-5.425,1.392-9.971,3.438-9.971,3.438s-1.237-3.295-2.962-7.484
	c-1.702-4.2-2.332-5.925-2.332-5.925s4.651-1.25,10.291-4.354c5.593-3.117,7.306-5.318,7.306-5.318s0.166-2.32-1.559-5.295
	c-1.702-2.962-2.476-2.784-2.476-2.784s-3.914,0-9.352,2.177c-5.461,2.178-9.687,4.652-9.687,4.652s-1.392-2.796-3.725-6.699
	c-2.343-3.879-3.438-5.616-3.438-5.616s4.688-2.022,10.293-6.21c5.615-4.224,6.233-5.926,6.233-5.926s0.167-1.249-2.021-4.378
	c-2.178-3.105-3.116-2.796-3.116-2.796s-3.57,0.154-8.876,3.105c-5.309,2.963-9.21,6.092-9.21,6.092s-1.547-2.819-4.354-6.544
	c-2.819-3.748-4.068-5.152-4.068-5.152s5.307-3.26,9.209-7.02c3.891-3.736,5.615-6.699,5.615-6.699s-0.166-1.856-2.355-4.212
	c-2.177-2.332-3.402-2.499-3.402-2.499s-3.451,0.773-8.899,4.521c-5.449,3.736-8.258,6.711-8.258,6.711s-1.559-1.88-5.14-5.604
	c-3.593-3.736-4.521-4.7-4.521-4.7s6.544-5.902,9.042-9.173c2.476-3.284,3.735-6.235,3.735-6.235s0.631-1.404-2.665-4.069
	c-3.165-2.559-3.879-2.32-3.879-2.32s-3.283,1.226-7.947,5.438c-4.688,4.224-7.495,7.972-7.495,7.972s-1.071-1.262-5.604-4.843
	c-4.534-3.582-5.462-4.224-5.462-4.224s2.975-2.939,7.341-9.495c4.355-6.544,3.726-7.948,3.726-7.948s-0.154-1.095-2.809-2.951
	c-2.642-1.879-4.354-1.879-4.354-1.879s-2.809,0.785-7.162,5.925c-4.379,5.14-6.865,9.187-6.865,9.187s-1.881-1.868-6.08-4.355
	c-4.188-2.499-5.616-3.295-5.616-3.295s3.104-4.188,6.093-10.423c2.95-6.247,2.642-7.948,2.642-7.948s0-0.94-3.271-2.785
	c-3.284-1.88-4.533-1.261-4.533-1.261s-2.796,1.392-6.39,6.841c-3.581,5.438-5.604,9.673-5.604,9.673s-2.022-1.095-6.854-3.271
	c-4.831-2.19-5.926-2.499-5.926-2.499s3.117-6.068,5.151-11.696c2.011-5.616,1.56-7.805,1.56-7.805s-0.619-1.38-3.928-2.629
	c-3.26-1.25-4.497-0.631-4.497-0.631s-2.652,2.188-5.449,7.627c-2.809,5.461-4.379,10.47-4.379,10.47s-1.7-0.797-7.008-2.51
	c-5.295-1.726-6.222-1.868-6.222-1.868s2.318-6.377,3.567-12.315c1.262-5.913,0.488-7.781,0.488-7.781s-0.321-0.952-3.438-1.868
	c-3.13-0.964-4.998-0.333-4.998-0.333s-2.51,1.511-4.662,7.96c-2.19,6.544-3.117,11.077-3.117,11.077s-1.571-0.321-7.021-1.416
	c-5.449-1.095-7.009-1.226-7.009-1.226s1.702-4.557,2.333-11.707c0.631-7.163-0.309-8.877-0.309-8.877s-1.416-1.118-4.522-1.57
	c-3.117-0.452-4.366,0.452-4.366,0.452s-2.332,2.832-3.582,8.757c-1.249,5.913-1.725,11.505-1.725,11.505l-12.16-1.392
	c0,0-0.143-9.353-1.082-13.874c-0.929-4.509-3.891-6.996-6.39-7.626c-2.493-0.643-4.658-0.953-6.086,0.166
	c-1.398,1.071-2.957,7.626-4.194,9.198c-1.261,1.547-7.032,5.758-9.971,12.778l-3.748,0.619c0,0-0.625-6.568-2.183-12.314
	c-1.559-5.771-3.742-8.27-3.742-8.27s-1.089-0.619-4.527,0c-3.427,0.631-3.902,1.726-3.902,1.726s-1.083,3.403-0.304,8.888
	c0.779,5.45,2.344,11.541,2.344,11.541s-3.123,0.286-7.168,1.071c-4.057,0.785-7.014,1.713-7.014,1.713s-0.934-5.914-3.117-11.22
	c-2.189-5.307-4.521-8.103-4.521-8.103s-1.565-0.487-4.688,0.477c-3.111,0.916-3.89,1.678-3.89,1.678s-0.631,4.081,0.934,9.53
	c1.564,5.461,3.438,10.756,3.438,10.756s-2.647,0.631-7.025,2.022c-4.361,1.392-6.377,2.511-6.377,2.511s-1.88-4.974-4.545-10.435
	c-2.642-5.473-5.598-7.96-5.598-7.96s-1.238-0.63-4.515,0.774c-3.285,1.404-3.576,2.629-3.576,2.629s0.148,5.021,1.862,9.055
	c1.713,4.057,4.991,10.304,4.991,10.304s-2.653,1.07-6.853,2.95c-4.224,1.868-6.086,3.118-6.086,3.118s-1.861-4.676-5.306-9.507
	c-3.415-4.831-6.847-7.33-6.847-7.33s-2.344,0-4.688,1.428c-2.332,1.38-2.962,2.927-2.962,2.927s0.167,3.593,3.272,9.197
	c3.123,5.617,5.634,8.888,5.634,8.888s-2.355,1.428-6.247,3.915c-3.896,2.475-5.604,3.879-5.604,3.879s-2.963-4.521-6.539-8.722
	c-3.587-4.224-7.496-6.389-7.496-6.389s-1.874-0.167-4.521,2.01c-2.647,2.189-2.647,3.272-2.647,3.272s0.458,3.462,4.2,8.579
	c3.742,5.152,6.877,8.412,6.877,8.412s-2.041,1.428-5.473,4.224c-3.432,2.808-5.604,4.843-5.604,4.843s-3.433-4.069-8.263-8.281
	c-4.831-4.188-7.472-4.831-7.472-4.831s-1.571-0.154-4.075,2.344c-2.487,2.486-2.166,3.748-2.166,3.748s0.31,2.463,5.449,8.103
	c5.128,5.604,7.49,7.306,7.49,7.306s-2.362,2.189-5.473,5.485c-3.117,3.26-4.211,4.819-4.211,4.819s-3.254-3.118-8.555-6.854
	c-5.301-3.735-8.745-4.533-8.745-4.533s-1.386,0.154-3.575,2.808c-2.189,2.653-2.017,4.057-2.017,4.057s0.619,2.499,5.914,7.175
	c5.313,4.688,8.888,6.699,8.888,6.699s-1.565,1.559-4.504,5.616c-2.986,4.045-3.92,5.759-3.92,5.759s-3.427-2.653-9.352-5.759
	c-5.919-3.117-9.03-3.271-9.03-3.271s-1.398,0.297-3.123,3.105c-1.726,2.82-1.726,4.367-1.726,4.367s2.017,3.438,7.96,7.008
	c5.919,3.582,8.263,4.831,8.263,4.831s-1.088,1.737-3.587,6.092c-2.487,4.354-3.421,6.223-3.421,6.223s-3.284-2.344-9.679-4.509
	c-6.377-2.189-9.358-2.189-9.358-2.189s-1.386,0.321-2.784,2.962c-1.606,3.034-1.416,4.843-1.416,4.843s2.034,3.094,9.197,6.365
	c7.18,3.284,8.567,3.582,8.567,3.582s-0.625,1.118-2.654,5.938c-2.01,4.831-2.79,7.341-2.79,7.341s-2.808-1.713-10.607-3.605
	c-7.788-1.844-9.346-0.905-9.346-0.905s-1.095,0.155-2.171,3.249c-1.101,3.129-0.791,4.997-0.791,4.997s1.255,2.475,9.03,4.974
	c7.806,2.51,9.834,2.82,9.834,2.82s-0.619,1.558-1.88,6.247c-1.255,4.652-1.862,7.46-1.862,7.46s-3.576-1.226-10.458-2.178
	c-6.853-0.939-10.113,0.309-10.113,0.309s-1.387,1.083-2.029,4.676c-0.47,2.665,0.464,3.748,0.464,3.748s1.095,2.177,9.495,3.891
	c8.442,1.725,10.149,1.725,10.149,1.725s-0.779,2.963-1.416,7.46c-0.619,4.534-0.773,6.377-0.773,6.377s-2.951-0.737-10.44-0.737
	c-7.478,0-10.125,1.082-10.125,1.082s-1.261-0.167-1.41,4.962c0,0-0.149,3.283,0.47,3.914c0.63,0.619,1.708,2.022,10.286,2.641
	c8.579,0.631,10.286,0.322,10.286,0.322s-0.476,3.89-0.476,9.97c0,6.093,0,10.138,0,10.138s-5.128-0.31-11.368,0.785
	c-6.223,1.084-9.198,2.797-9.198,2.797s-0.934,1.262-0.612,4.211c0.297,2.965,1.392,4.688,1.392,4.688s2.356,1.546,10.447,0.916
	c8.108-0.618,10.137-1.403,10.137-1.403s0.143,1.725,0.768,7.021c0.619,5.317,0.952,7.315,0.952,7.315s-4.372,0.311-10.292,2.022
	c-5.931,1.728-9.53,4.224-9.53,4.224s-0.768,1.869,0,4.831c0.797,2.964,1.886,3.88,1.886,3.88s2.35,1.118,9.971-0.464
	c7.633-1.536,10.144-2.63,10.144-2.63s0.613,2.318,1.695,6.688c1.101,4.367,1.886,7.175,1.886,7.175s-4.058,1.094-10.131,3.581
	c-6.086,2.511-8.888,5.295-8.888,5.295s-0.143,1.595,0.785,4.378c0.928,2.784,2.183,3.735,2.183,3.735s2.647,0.94,10.429-1.713
	c7.799-2.654,9.357-3.414,9.357-3.414s0.779,2.463,2.338,6.365c1.57,3.926,2.659,6.733,2.659,6.733s-4.533,1.702-9.815,4.664
	c-5.301,2.95-7.966,6.223-7.966,6.223s-0.149,1.702,1.101,4.367c1.237,2.642,2.796,3.581,2.796,3.581s2.041,1.105,9.822-2.784
	c7.811-3.915,9.346-5.164,9.346-5.164s0.488,1.535,2.975,6.246c2.493,4.677,3.73,6.545,3.73,6.545s-4.985,2.962-8.876,5.592
	c-3.897,2.665-7.33,7.484-7.33,7.484s-0.315,1.249,1.559,4.057c1.874,2.81,3.427,3.439,3.427,3.439s3.277-0.321,9.506-4.379
	c6.247-4.033,8.43-5.593,8.43-5.593s1.553,2.642,3.885,6.056c2.338,3.438,4.069,5.641,4.069,5.641s-2.826,1.393-7.645,6.057
	c-4.831,4.688-6.859,8.413-6.859,8.413s-0.321,1.271,1.713,3.76c2.035,2.475,3.885,3.438,3.885,3.438s3.438-0.654,9.519-5.807
	c6.08-5.116,7.025-6.223,7.025-6.223s0.928,0.772,4.194,4.521c3.284,3.749,5.461,5.938,5.461,5.938s-5.461,5.281-8.269,8.888
	c-2.796,3.569-4.188,7.174-4.188,7.174s0.143,1.868,2.326,3.892c2.171,2.034,4.051,2.476,4.051,2.476s3.742-1.394,8.573-6.545
	c4.831-5.14,6.229-7.447,6.229-7.447s1.25,1.213,5.301,4.664c4.058,3.427,5.61,4.664,5.61,4.664s-3.593,3.89-6.234,8.257
	c-2.629,4.366-4.349,9.507-4.349,9.507s0,1.261,2.802,3.283c2.79,2.011,4.045,2.011,4.045,2.011s3.034-0.975,7.942-7.626
	c4.366-5.914,5.616-7.627,5.616-7.627s1.392,0.928,5.461,3.569c4.051,2.665,6.24,4.058,6.24,4.058s-2.392,3.642-4.682,8.091
	c-2.647,5.176-3.593,10.757-3.593,10.757s0,0.964,2.968,2.677c2.951,1.701,4.664,1.701,4.664,1.701s3.123-1.868,7.026-9.042
	c3.902-7.163,4.366-8.104,4.366-8.104s1.243,1.083,5.925,3.271C213.43,501.103,215.416,502.175,215.416,502.175z"/>
<path d="M205.975,201.972c0,0,23.921,12.814,50.168,8.447c22.446-3.759,28.704-18.109,28.704-18.109s-6.276-2.26-4.7-7.77
	c1.244-4.378,6.859-3.451,6.859-3.451s0.31-6.521-5.306-10.589c-5.623-4.057-10.917-3.414-9.365-9.03
	c1.88-6.722,17.164-3.129,32.441-3.129c15.272,0,32.785-3.236,34.915,3.129c1.856,5.616-6.044,6.08-9.994,9.03
	c-3.735,2.808-5.281,10.292-5.281,10.292s6.233,0.631,6.853,3.106c1.619,6.46-4.688,8.102-4.688,8.102s6.14,14.552,25.58,18.098
	c32.411,5.913,53.291-8.424,53.291-8.424s-19.618-1.88-23.688-18.073c-4.045-16.217,10.28-34.278,24.63-33.969
	c14.967,0.31,34.921,9.959,45.201,35.837c4.581,11.541,9.577,27.461,11.529,48.64c1.975,21.143,0.928,47.533-4.664,75.125
	c-11.805,57.979-37.421,94.138-37.421,94.138s-12.778-0.939-23.688-2.497c-10.91-1.561-22.438-3.427-22.438-3.427
	s31.814-41.764,41.451-96.662c6.641-37.634,0.93-58.586,0.93-58.586s-41.145,14.146-111.902,14.146
	c-70.752,0-110.968-14.146-110.968-14.146s-5.824,28.424,0.304,57.967c12.166,58.623,41.774,97.281,41.774,97.281
	s-14.343,1.261-24.004,2.164c-9.656,0.951-23.047,2.819-23.047,2.819s-29.853-47.261-36.819-95.09
	c-4.974-34.278-5.592-51.732-4.033-72.935c1.559-21.179,5.622-37.396,13.106-53.304c7.466-15.908,24.623-30.864,42.381-31.471
	c17.77-0.654,31.048,21.786,25.563,34.909c-7.174,17.133-24.32,17.133-24.32,17.133"/>
<path d="M269.244,594.861l4.747,0.452l3.624-34.124l-2.999-0.345c-1.535,1.297-2.416,1.832-4.522,2.808l-0.386,3.392l2.439,0.285
	L269.244,594.861"/>
<path d="M295.068,578.786c2.309-1.559,2.612-2.344,2.892-8.102c0.172-3.189-0.102-4.76-1.047-6.234
	c-0.97-1.465-2.635-2.356-4.634-2.439c-1.999-0.083-3.736,0.572-4.843,1.893c-1.166,1.438-1.618,2.926-1.778,6.188
	c-0.304,5.723-0.072,6.497,2.117,8.341c-2.754,0.904-2.974,1.654-3.408,9.828c-0.185,3.295,0.143,5.093,1.178,6.627
	c1.029,1.486,2.82,2.379,4.884,2.499c4.444,0.262,6.693-2.595,7.025-8.614C297.859,580.893,297.651,580.013,295.068,578.786
	 M290.214,568.816c0.113-1.987,0.619-2.772,1.862-2.666c1.166,0.024,1.57,0.868,1.517,2.856l-0.262,4.557
	c-0.107,1.999-0.606,2.713-1.791,2.677c-1.225-0.095-1.666-0.833-1.547-2.854L290.214,568.816z M289.263,584.058
	c0.136-2.32,0.643-3.022,2.017-2.951c1.362,0.097,1.803,0.917,1.708,3.153l-0.292,5.759c-0.143,2.201-0.696,3.021-2.028,2.95
	c-1.404-0.071-1.821-0.844-1.708-3.177L289.263,584.058z"/>
<path d="M316.075,578.715c2.178-1.772,2.367-2.569,2.178-8.245c-0.071-3.26-0.499-4.831-1.595-6.188
	c-1.07-1.392-2.809-2.104-4.782-2.032c-2.04,0.094-3.719,0.891-4.707,2.343c-1.046,1.451-1.313,3.046-1.218,6.271
	c0.184,5.771,0.493,6.483,2.819,8.113c-2.671,1.179-2.838,1.893-2.552,10.102c0.137,3.284,0.588,5.046,1.79,6.509
	c1.143,1.394,2.999,2.131,5.057,2.083c4.427-0.166,6.449-3.188,6.224-9.187C319.014,580.559,318.741,579.715,316.075,578.715
	 M310.376,569.197c-0.071-1.986,0.368-2.761,1.617-2.832c1.179-0.061,1.665,0.726,1.736,2.736l0.145,4.558
	c0.07,1.998-0.357,2.783-1.513,2.854c-1.248,0.036-1.771-0.761-1.818-2.748L310.376,569.197z M310.745,584.499
	c-0.07-2.332,0.369-3.048,1.772-3.095c1.332-0.07,1.855,0.763,1.951,2.928l0.215,5.782c0.047,2.201-0.418,2.998-1.738,3.069
	c-1.403,0.096-1.902-0.679-1.975-2.927L310.745,584.499z"/>
<path d="M329.031,586.39c0,0.893,0.05,1.297,0.12,2.188c0.689,5.152,3.331,7.698,7.354,7.246c2.094-0.272,3.926-1.392,4.9-2.95
	c0.999-1.583,1.106-3.021,0.702-6.484l-0.951-7.912c-0.606-4.985-2.678-7.687-5.615-7.306c-1.394,0.143-2.346,0.986-3.534,2.879
	l-0.618-8.28l7.044-0.846l-0.382-4.511l-11.113,1.382l1.644,17.562l4.021-0.452c0.262-1.891,0.893-2.95,1.881-3.068
	c0.976-0.107,1.593,0.631,1.76,2.271l1.311,10.279c0.188,1.727-0.286,2.796-1.395,2.928c-1.438,0.166-2.165-1.059-2.546-4.177
	l-0.13-1.319L329.031,586.39"/>
<path d="M248.267,35.886c0-1.88,1.529-3.415,3.391-3.415c1.874,0,3.402,1.535,3.402,3.415c0,1.916-1.529,3.403-3.402,3.403
	C249.796,39.288,248.267,37.802,248.267,35.886"/>
<path fill="#EC008C" d="M368.105,573.968c0.145-1.916,1.797-3.332,3.664-3.153c1.904,0.167,3.237,1.832,3.118,3.736
	c-0.19,1.867-1.832,3.225-3.713,3.058C369.296,577.442,367.927,575.811,368.105,573.968"/>
<path fill="#EC008C" d="M237.737,574.622c0-1.892,1.529-3.379,3.403-3.379c1.85,0,3.397,1.487,3.397,3.379
	c0,1.893-1.547,3.368-3.397,3.368C239.267,577.99,237.737,576.514,237.737,574.622"/>
<path d="M217.207,558.893c0.351-0.631,0.452-0.964,0.708-1.57c1.077-2.642,1.25-4.034,0.821-5.783
	c-0.547-2.105-1.833-3.449-4.117-4.366c-3.926-1.606-7.061-0.179-8.679,3.867c-1.053,2.486-1.202,6.044-0.393,9.709l0.869,3.938
	c1.106,5.306,1.13,5.807,0.368,7.662c-0.708,1.845-1.755,2.559-2.891,2.082c-0.939-0.381-1.368-1.296-1.011-2.605
	c0.185-0.653,0.345-1.225,0.97-2.771l-4.289-1.262c-0.988,2.486-1.036,2.605-1.314,3.879c-0.518,2.964,0.934,5.462,3.777,6.628
	c3.748,1.499,7.24-0.047,8.828-4.01c1.101-2.678,1.113-5.116,0.071-10.055l-0.856-3.962c-0.94-3.569-0.952-4.962-0.172-6.961
	c0.779-1.915,1.826-2.76,3.099-2.236c1.684,0.679,1.755,1.893,0.482,5.068l-0.518,1.237L217.207,558.893"/>
<polyline points="175.873,566.305 190.692,537.285 180.525,532.181 178.598,535.941 184.689,539.035 179.835,548.565 
	175.831,546.483 173.91,550.326 177.896,552.36 173.749,560.464 168.032,557.585 166.063,561.344 175.873,566.305 "/>
<path d="M155.736,525.316l-3.374-2.368l3.516-6.483l-3.646-2.522l-15.182,29.127l4.777,3.379l22.345-24.152l-3.594-2.521
	L155.736,525.316 M150.322,526.731l2.564,1.773l-9.94,11.494L150.322,526.731z"/>
<polyline points="136.984,501.508 128.685,494.346 125.894,497.534 130.749,501.747 112.176,523.15 115.585,526.125 
	136.984,501.508 "/>
<path d="M57.629,441.637c-3.344,1.951-4.004,2.521-4.783,3.95c-0.868,1.726-0.72,4.021,0.435,6.045
	c1.148,1.985,3.057,3.259,4.991,3.354c1.654,0.072,2.457-0.262,5.8-2.165l13.855-7.996c3.368-1.915,4.01-2.438,4.777-3.974
	c0.922-1.726,0.773-4.021-0.375-5.985c-1.136-2.021-3.051-3.282-5.039-3.354c-1.648-0.083-2.415,0.203-5.783,2.179L57.629,441.637
	 M75.411,436.627c1.606-0.915,2.594-0.797,3.236,0.333c0.696,1.189,0.291,2.059-1.315,2.999l-17.139,9.875
	c-1.594,0.928-2.582,0.785-3.243-0.32c-0.672-1.179-0.285-2.059,1.321-3.011L75.411,436.627z"/>
<polyline points="40.014,424.61 69.801,411.333 67.951,407.203 54.304,413.307 52.471,409.142 48.587,410.927 50.413,415.009 
	42.079,418.756 39.449,412.844 35.558,414.532 40.014,424.61 "/>
<polyline points="48.539,331.555 48.259,327.022 19.966,328.984 19.686,324.571 15.427,324.855 16.343,338.016 20.602,337.73 
	20.287,333.518 48.539,331.555 "/>
<polyline points="32.846,294.718 47.777,295.467 48.016,290.946 15.486,289.245 15.254,293.778 28.621,294.456 28.413,298.193 
	15.051,297.455 14.784,302.048 47.355,303.714 47.576,299.204 32.649,298.442 32.846,294.718 "/>
<polyline points="17.723,265.663 49.908,270.743 51.686,259.499 47.462,258.845 46.409,265.603 35.843,263.89 36.546,259.476 
	32.346,258.845 31.643,263.235 22.613,261.844 23.66,255.502 19.448,254.788 17.723,265.663 "/>
<path d="M63.709,175.142l-2.862,5.854l3.45,1.677l0.875-1.772l4.242,2.082c1.618,0.762,1.892,0.917,2.392,1.309
	c0.749,0.583,0.993,1.523,0.595,2.355c-0.357,0.714-1.172,1.047-2.041,0.845c-0.648-0.131-0.69-0.167-2.617-1.107l-15.485-7.532
	c-2.57-1.237-3.052-1.915-2.403-3.224c0.708-1.5,1.778-1.44,5.08,0.178c0.595,0.285,1.047,0.476,1.928,1.023l1.981-4.104
	c-1.106-0.607-1.666-0.905-2.278-1.214c-5.099-2.451-8.596-1.725-10.542,2.178c-1.856,3.854-0.404,6.924,4.212,9.221l15.515,7.567
	c2.624,1.273,3.897,1.678,5.461,1.583c1.939-0.071,3.79-1.154,4.593-2.844c0.708-1.404,0.535-3.034-0.612-5.009l2.332,0.38
	l1.064-2.201L63.709,175.142"/>
<polyline points="63.257,144.48 89.272,164.076 96.125,154.986 92.723,152.392 88.606,157.913 80.087,151.488 82.77,147.883 
	79.368,145.325 76.66,148.894 69.361,143.397 73.263,138.258 69.872,135.711 63.257,144.48 "/>
<path d="M98.279,113.913c-2.897-2.605-3.605-3.058-5.247-3.355c-1.927-0.309-4.045,0.547-5.598,2.249
	c-1.535,1.737-2.147,3.938-1.672,5.842c0.458,1.57,1,2.249,3.867,4.842l11.904,10.708c2.862,2.57,3.563,3.01,5.229,3.343
	c1.916,0.274,4.057-0.559,5.604-2.272c1.553-1.689,2.154-3.867,1.618-5.794c-0.44-1.606-0.934-2.249-3.819-4.854L98.279,113.913
	 M108.523,129.251c1.386,1.249,1.583,2.189,0.685,3.176c-0.922,1.035-1.862,0.904-3.219-0.333l-14.712-13.266
	c-1.368-1.214-1.565-2.178-0.696-3.189c0.928-0.987,1.862-0.868,3.26,0.369L108.523,129.251z"/>
<path d="M108.88,91.747l21.81,24.213l3.385-3.07l-9.269-10.256c0.482-0.464,0.583-0.559,1.088-1.214l11.322,8.65l3.623-3.248
	l-12.778-9.448c-0.179-3.093-0.833-4.414-3.57-7.436c-1.844-2.082-3.349-3.105-5.057-3.712c-2.427-0.797-4.241-0.167-7.246,2.57
	L108.88,91.747 M121.743,99.255l-6.657-7.365l0.5-0.464c1.784-1.606,2.915-1.476,5.003,0.821c2.017,2.273,2.403,2.76,2.76,3.51
	c0.405,1.012,0.107,1.928-1.142,3.046L121.743,99.255z"/>
<path d="M159.263,73.281l-5.58,3.391l1.981,3.284l1.713-1.023l2.404,4.01c0.927,1.535,1.094,1.797,1.273,2.416
	c0.333,0.904,0.023,1.844-0.786,2.308c-0.63,0.393-1.529,0.274-2.154-0.393c-0.464-0.511-0.493-0.523-1.588-2.343l-8.894-14.79
	c-1.458-2.439-1.493-3.296-0.226-4.021c1.375-0.809,2.243-0.226,4.141,2.915c0.381,0.607,0.613,1.023,1.053,1.963l3.873-2.403
	c-0.565-1.118-0.886-1.63-1.231-2.26c-2.921-4.819-6.276-6.116-10.036-3.844c-3.623,2.142-4.135,5.533-1.458,9.995l8.876,14.766
	c1.511,2.499,2.379,3.534,3.718,4.331c1.636,1,3.795,1.047,5.414,0.095c1.356-0.833,2.076-2.272,2.201-4.498l1.772,1.559l2.094-1.25
	L159.263,73.281"/>
<polyline fill="#EC008C" points="174.921,45.904 170.864,47.915 185.142,77.137 189.205,75.162 174.921,45.904 "/>
<path d="M209.414,58.183l3.819-1.38l3.29,6.616l4.206-1.535l-15.146-29.175l-5.521,2.011l6.948,32.125l4.141-1.499L209.414,58.183
	 M211.342,52.959l-2.945,1.083l-3.694-14.682L211.342,52.959z"/>
<polyline points="290.625,15.052 286.103,15.385 288.382,47.903 292.933,47.581 290.625,15.052 "/>
<polyline points="329.556,15.813 324.963,15.611 323.987,34.767 318.99,15.266 315.111,15.052 313.375,47.594 317.907,47.82 
	318.811,30.781 323.273,48.129 327.843,48.355 329.556,15.813 "/>
<path d="M348.712,41.549c-0.145,0.762-0.215,1.059-0.286,1.726c-0.464,2.772-0.332,4.188,0.522,5.818
	c0.952,1.892,2.548,2.903,4.985,3.332c4.165,0.63,6.914-1.416,7.579-5.664c0.452-2.761-0.213-6.234-1.785-9.602l-1.761-3.664
	c-2.26-4.938-2.402-5.39-2.094-7.401c0.333-1.916,1.166-2.855,2.354-2.677c1.048,0.143,1.619,0.975,1.595,2.332
	c-0.022,0.702-0.07,1.261-0.333,2.95l4.475,0.203c0.404-2.629,0.439-2.808,0.404-4.033c-0.189-3.034-2.13-5.104-5.188-5.592
	c-3.998-0.654-6.997,1.63-7.688,5.866c-0.477,2.855,0.071,5.199,2.214,9.815l1.666,3.653c1.761,3.284,2.094,4.593,1.761,6.747
	c-0.311,2.058-1.166,3.082-2.522,2.855c-1.785-0.286-2.142-1.428-1.594-4.843l0.166-1.309L348.712,41.549"/>
<polyline points="383.502,59.135 387.785,60.693 397.47,34.041 401.635,35.588 403.158,31.591 390.688,27.045 389.213,31.067 
	393.234,32.471 383.502,59.135 "/>
<polyline points="427.786,41.68 423.658,39.693 409.368,68.951 413.461,70.937 427.786,41.68 "/>
<polyline points="433.795,81.265 437.663,83.621 452.261,59.301 456.082,61.657 458.247,57.969 446.895,51.163 444.718,54.792 
	448.382,56.981 433.795,81.265 "/>
<path d="M480.186,73.056l-3.594-2.749l-14.646,19.441c-2.319,3.022-2.735,3.784-2.867,5.474c-0.095,1.927,0.929,3.974,2.736,5.33
	c1.855,1.44,4.093,1.844,5.926,1.179c1.535-0.572,2.165-1.179,4.497-4.248l14.671-19.454l-3.651-2.689l-15.741,20.905
	c-1.132,1.463-2.035,1.796-3.118,0.928c-1.083-0.809-1.083-1.749,0.06-3.236L480.186,73.056"/>
<polyline points="484.398,119.065 487.777,122.1 506.743,101.052 510.04,104.015 512.883,100.838 503.054,92.01 500.199,95.15 
	503.351,98.018 484.398,119.065 "/>
<polyline points="530.136,120.041 504.113,139.662 510.978,148.764 514.358,146.193 510.241,140.756 518.784,134.295 
	521.52,137.889 524.911,135.283 522.186,131.761 529.492,126.276 533.372,131.416 536.75,128.846 530.136,120.041 "/>
<path d="M572.563,212.288c3.652-1.261,4.379-1.713,5.413-2.986c1.132-1.583,1.381-3.843,0.606-6.021
	c-0.785-2.142-2.45-3.724-4.317-4.211c-1.631-0.333-2.463-0.191-6.104,1.118l-15.051,5.497c-3.604,1.333-4.354,1.761-5.39,3.058
	c-1.202,1.606-1.44,3.855-0.679,6.021c0.772,2.189,2.485,3.771,4.391,4.176c1.618,0.31,2.403,0.214,6.092-1.106L572.563,212.288
	 M554.169,214.239c-1.749,0.572-2.666,0.321-3.142-0.952c-0.439-1.297,0.118-2.07,1.844-2.677l18.598-6.758
	c1.736-0.643,2.665-0.357,3.117,0.869c0.451,1.309-0.071,2.07-1.809,2.725L554.169,214.239z"/>
<polyline points="587.745,232.729 555.977,240.058 557.001,244.496 571.542,241.093 572.563,245.484 576.681,244.52 
	575.704,240.153 584.604,238.119 586.032,244.4 590.173,243.413 587.745,232.729 "/>
<polyline points="563.593,321.632 563.318,326.2 591.648,327.616 591.411,332.054 595.645,332.305 596.337,319.073 592.1,318.859 
	591.863,323.083 563.593,321.632 "/>
<polyline points="592.648,354.174 560.475,349.057 558.679,360.312 562.891,360.968 563.985,354.232 574.515,355.911 
	573.813,360.349 578.038,360.968 578.704,356.565 587.745,357.993 586.723,364.382 590.946,365.048 592.648,354.174 "/>
<path d="M561.808,391.711c-1.534-0.463-2.285-0.737-3.308-1.059c-3.165-1.166-3.903-1.986-3.393-3.427
	c0.514-1.368,1.333-1.522,3.986-0.56l16.859,6.104c2.652,1.047,3.226,1.654,2.688,3.023c-0.512,1.51-1.582,1.604-4.997,0.38
	c-0.726-0.286-1.083-0.466-2.047-0.929l-1.57,4.283c1.154,0.571,1.654,0.737,2.393,0.987c5.33,1.928,8.731,0.881,10.256-3.261
	c1.429-3.998-0.285-6.937-5.141-8.709l-16.895-6.151c-4.854-1.761-8.068-0.618-9.496,3.401c-1.511,4.13,0.405,7.129,5.854,9.15
	c0.81,0.262,1.595,0.5,3.248,1.059L561.808,391.711"/>
<polyline points="551.742,424.777 538.345,418.244 536.346,422.302 565.615,436.603 567.601,432.57 555.573,426.668 
	557.216,423.337 569.232,429.167 571.23,425.11 541.937,410.833 539.986,414.913 553.395,421.445 551.742,424.777 "/>
<polyline points="547.065,469.098 549.409,465.243 532.931,455.32 552.491,460.043 554.514,456.734 526.589,439.911 
	524.245,443.791 538.939,452.606 521.497,448.418 519.152,452.285 547.065,469.098 "/>
<path d="M515.821,495.012c2.845,2.617,3.604,3.046,5.247,3.309c1.88,0.284,4.021-0.548,5.592-2.262
	c1.536-1.678,2.118-3.89,1.619-5.782c-0.477-1.595-0.953-2.248-3.832-4.843l-11.897-10.72c-2.855-2.57-3.581-3.034-5.224-3.332
	c-1.986-0.32-4.104,0.548-5.64,2.178c-1.535,1.761-2.13,3.949-1.605,5.854c0.476,1.652,0.929,2.271,3.879,4.89L515.821,495.012
	 M505.529,479.627c-1.38-1.249-1.559-2.188-0.653-3.165c0.893-1.012,1.819-0.88,3.225,0.356l14.706,13.219
	c1.354,1.25,1.57,2.215,0.643,3.2c-0.903,1.024-1.809,0.894-3.225-0.392L505.529,479.627z"/>
<polyline points="483.637,493.216 475.5,500.556 478.295,503.674 483.113,499.379 502.056,520.462 505.458,517.439 483.637,493.216 
	"/>
<path d="M464.767,539.903c2.32,3.046,2.95,3.688,4.51,4.247c1.832,0.645,4.08,0.19,5.912-1.13c1.833-1.428,2.856-3.462,2.714-5.366
	c-0.095-1.713-0.523-2.427-2.809-5.474l-9.638-12.873c-2.355-3.081-2.998-3.57-4.521-4.235c-1.854-0.679-4.093-0.25-5.925,1.154
	c-1.832,1.356-2.879,3.426-2.726,5.39c0.144,1.653,0.487,2.332,2.844,5.484L464.767,539.903 M457.615,522.842
	c-1.13-1.487-1.13-2.463-0.083-3.26c1.096-0.834,2.022-0.536,3.095,0.95l11.944,15.788c1.118,1.513,1.118,2.487,0.048,3.284
	c-1.069,0.845-1.976,0.465-3.094-0.976L457.615,522.842z"/>
<path d="M427.93,552.183l5.865-2.892l-1.653-3.476l-1.797,0.881l-2.059-4.188c-0.784-1.643-0.929-1.939-1.047-2.534
	c-0.227-0.939,0.118-1.797,0.951-2.237c0.737-0.355,1.583-0.083,2.153,0.584c0.381,0.487,0.417,0.56,1.381,2.498l7.543,15.468
	c1.25,2.559,1.226,3.393-0.107,4.059c-1.428,0.688-2.26,0-3.854-3.309c-0.321-0.584-0.548-1.06-0.881-2.021l-4.093,2.021
	c0.476,1.227,0.75,1.772,1.048,2.367c2.45,5.068,5.711,6.676,9.637,4.761c3.808-1.915,4.605-5.177,2.332-9.853l-7.567-15.504
	c-1.261-2.653-2.021-3.688-3.282-4.64c-1.596-1.132-3.726-1.394-5.379-0.572c-1.464,0.667-2.31,2.118-2.617,4.331l-1.618-1.772
	l-2.189,1.096L427.93,552.183"/>
<polyline points="403.348,559.583 398.756,546.888 394.472,548.434 399.089,561.142 400.825,580.773 405.335,579.096 
	403.574,567.018 410.012,577.442 414.651,575.753 403.348,559.583 "/>
<path d="M88.927,479.247c0-1.893,1.505-3.402,3.379-3.402c1.892,0,3.403,1.511,3.403,3.402c0,1.903-1.511,3.402-3.403,3.402
	C90.433,482.649,88.927,481.15,88.927,479.247"/>
<path d="M576.489,282.868c0.107-1.904,1.738-3.236,3.617-3.13c1.856,0.095,3.285,1.738,3.143,3.617
	c-0.132,1.833-1.737,3.272-3.616,3.13C577.764,286.353,576.348,284.712,576.489,282.868"/>
<path d="M540.486,167.955c0.214-1.88,1.845-3.212,3.725-3.022c1.867,0.179,3.225,1.88,3.011,3.748
	c-0.19,1.844-1.833,3.212-3.735,3.01C541.651,171.513,540.271,169.799,540.486,167.955"/>
<path d="M40.96,220.26c0-1.868,1.517-3.379,3.367-3.379c1.897,0,3.403,1.511,3.403,3.379c0,1.868-1.505,3.415-3.403,3.415
	C42.477,223.674,40.96,222.127,40.96,220.26"/>
<path d="M35.421,372.436c0-1.868,1.522-3.378,3.42-3.378c1.85,0,3.374,1.51,3.374,3.378c0,1.855-1.523,3.368-3.374,3.368
	C36.944,375.805,35.421,374.293,35.421,372.436"/>
<path d="M269.244,594.861l4.747,0.452l3.624-34.124l-2.999-0.345c-1.535,1.297-2.416,1.832-4.522,2.808l-0.386,3.392l2.439,0.285
	L269.244,594.861"/>
<path d="M295.068,578.786c2.309-1.559,2.612-2.344,2.892-8.102c0.172-3.189-0.102-4.76-1.047-6.234
	c-0.97-1.465-2.635-2.356-4.634-2.439c-1.999-0.083-3.736,0.572-4.843,1.893c-1.166,1.438-1.618,2.926-1.778,6.188
	c-0.304,5.723-0.072,6.497,2.117,8.341c-2.754,0.904-2.974,1.654-3.408,9.828c-0.185,3.295,0.143,5.093,1.178,6.627
	c1.029,1.486,2.82,2.379,4.884,2.499c4.444,0.262,6.693-2.595,7.025-8.614C297.859,580.893,297.651,580.013,295.068,578.786
	 M290.214,568.816c0.113-1.987,0.619-2.772,1.862-2.666c1.166,0.024,1.57,0.868,1.517,2.856l-0.262,4.557
	c-0.107,1.999-0.606,2.713-1.791,2.677c-1.225-0.095-1.666-0.833-1.547-2.854L290.214,568.816z M289.263,584.058
	c0.136-2.32,0.643-3.022,2.017-2.951c1.362,0.097,1.803,0.917,1.708,3.153l-0.292,5.759c-0.143,2.201-0.696,3.021-2.028,2.95
	c-1.404-0.071-1.821-0.844-1.708-3.177L289.263,584.058z"/>
<path d="M316.075,578.715c2.178-1.772,2.367-2.569,2.178-8.245c-0.071-3.26-0.499-4.831-1.595-6.188
	c-1.07-1.392-2.809-2.104-4.782-2.032c-2.04,0.094-3.719,0.891-4.707,2.343c-1.046,1.451-1.313,3.046-1.218,6.271
	c0.184,5.771,0.493,6.483,2.819,8.113c-2.671,1.179-2.838,1.893-2.552,10.102c0.137,3.284,0.588,5.046,1.79,6.509
	c1.143,1.394,2.999,2.131,5.057,2.083c4.427-0.166,6.449-3.188,6.224-9.187C319.014,580.559,318.741,579.715,316.075,578.715
	 M310.376,569.197c-0.071-1.986,0.368-2.761,1.617-2.832c1.179-0.061,1.665,0.726,1.736,2.736l0.145,4.558
	c0.07,1.998-0.357,2.783-1.513,2.854c-1.248,0.036-1.771-0.761-1.818-2.748L310.376,569.197z M310.745,584.499
	c-0.07-2.332,0.369-3.048,1.772-3.095c1.332-0.07,1.855,0.763,1.951,2.928l0.215,5.782c0.047,2.201-0.418,2.998-1.738,3.069
	c-1.403,0.096-1.902-0.679-1.975-2.927L310.745,584.499z"/>
<path d="M329.031,586.39c0,0.893,0.05,1.297,0.12,2.188c0.689,5.152,3.331,7.698,7.354,7.246c2.094-0.272,3.926-1.392,4.9-2.95
	c0.999-1.583,1.106-3.021,0.702-6.484l-0.951-7.912c-0.606-4.985-2.678-7.687-5.615-7.306c-1.394,0.143-2.346,0.986-3.534,2.879
	l-0.618-8.28l7.044-0.846l-0.382-4.511l-11.113,1.382l1.644,17.562l4.021-0.452c0.262-1.891,0.893-2.95,1.881-3.068
	c0.976-0.107,1.593,0.631,1.76,2.271l1.311,10.279c0.188,1.727-0.286,2.796-1.395,2.928c-1.438,0.166-2.165-1.059-2.546-4.177
	l-0.13-1.319L329.031,586.39"/>
<path d="M248.267,35.886c0-1.88,1.529-3.415,3.391-3.415c1.874,0,3.402,1.535,3.402,3.415c0,1.916-1.529,3.403-3.402,3.403
	C249.796,39.288,248.267,37.802,248.267,35.886"/>
<path d="M368.105,573.968c0.145-1.916,1.797-3.332,3.664-3.153c1.904,0.167,3.237,1.832,3.118,3.736
	c-0.19,1.867-1.832,3.225-3.713,3.058C369.296,577.442,367.927,575.811,368.105,573.968"/>
<path d="M237.737,574.622c0-1.892,1.529-3.379,3.403-3.379c1.85,0,3.397,1.487,3.397,3.379c0,1.893-1.547,3.368-3.397,3.368
	C239.267,577.99,237.737,576.514,237.737,574.622"/>
<path d="M217.207,558.893c0.351-0.631,0.452-0.964,0.708-1.57c1.077-2.642,1.25-4.034,0.821-5.783
	c-0.547-2.105-1.833-3.449-4.117-4.366c-3.926-1.606-7.061-0.179-8.679,3.867c-1.053,2.486-1.202,6.044-0.393,9.709l0.869,3.938
	c1.106,5.306,1.13,5.807,0.368,7.662c-0.708,1.845-1.755,2.559-2.891,2.082c-0.939-0.381-1.368-1.296-1.011-2.605
	c0.185-0.653,0.345-1.225,0.97-2.771l-4.289-1.262c-0.988,2.486-1.036,2.605-1.314,3.879c-0.518,2.964,0.934,5.462,3.777,6.628
	c3.748,1.499,7.24-0.047,8.828-4.01c1.101-2.678,1.113-5.116,0.071-10.055l-0.856-3.962c-0.94-3.569-0.952-4.962-0.172-6.961
	c0.779-1.915,1.826-2.76,3.099-2.236c1.684,0.679,1.755,1.893,0.482,5.068l-0.518,1.237L217.207,558.893"/>
<polyline points="175.873,566.305 190.692,537.285 180.525,532.181 178.598,535.941 184.689,539.035 179.835,548.565 
	175.831,546.483 173.91,550.326 177.896,552.36 173.749,560.464 168.032,557.585 166.063,561.344 175.873,566.305 "/>
<path d="M155.736,525.316l-3.374-2.368l3.516-6.483l-3.646-2.522l-15.182,29.127l4.777,3.379l22.345-24.152l-3.594-2.521
	L155.736,525.316 M150.322,526.731l2.564,1.773l-9.94,11.494L150.322,526.731z"/>
<polyline points="136.984,501.508 128.685,494.346 125.894,497.534 130.749,501.747 112.176,523.15 115.585,526.125 
	136.984,501.508 "/>
<path d="M57.629,441.637c-3.344,1.951-4.004,2.521-4.783,3.95c-0.868,1.726-0.72,4.021,0.435,6.045
	c1.148,1.985,3.057,3.259,4.991,3.354c1.654,0.072,2.457-0.262,5.8-2.165l13.855-7.996c3.368-1.915,4.01-2.438,4.777-3.974
	c0.922-1.726,0.773-4.021-0.375-5.985c-1.136-2.021-3.051-3.282-5.039-3.354c-1.648-0.083-2.415,0.203-5.783,2.179L57.629,441.637
	 M75.411,436.627c1.606-0.915,2.594-0.797,3.236,0.333c0.696,1.189,0.291,2.059-1.315,2.999l-17.139,9.875
	c-1.594,0.928-2.582,0.785-3.243-0.32c-0.672-1.179-0.285-2.059,1.321-3.011L75.411,436.627z"/>
<polyline points="40.014,424.61 69.801,411.333 67.951,407.203 54.304,413.307 52.471,409.142 48.587,410.927 50.413,415.009 
	42.079,418.756 39.449,412.844 35.558,414.532 40.014,424.61 "/>
<polyline points="48.539,331.555 48.259,327.022 19.966,328.984 19.686,324.571 15.427,324.855 16.343,338.016 20.602,337.73 
	20.287,333.518 48.539,331.555 "/>
<polyline points="32.846,294.718 47.777,295.467 48.016,290.946 15.486,289.245 15.254,293.778 28.621,294.456 28.413,298.193 
	15.051,297.455 14.784,302.048 47.355,303.714 47.576,299.204 32.649,298.442 32.846,294.718 "/>
<polyline points="17.723,265.663 49.908,270.743 51.686,259.499 47.462,258.845 46.409,265.603 35.843,263.89 36.546,259.476 
	32.346,258.845 31.643,263.235 22.613,261.844 23.66,255.502 19.448,254.788 17.723,265.663 "/>
<path d="M63.709,175.142l-2.862,5.854l3.45,1.677l0.875-1.772l4.242,2.082c1.618,0.762,1.892,0.917,2.392,1.309
	c0.749,0.583,0.993,1.523,0.595,2.355c-0.357,0.714-1.172,1.047-2.041,0.845c-0.648-0.131-0.69-0.167-2.617-1.107l-15.485-7.532
	c-2.57-1.237-3.052-1.915-2.403-3.224c0.708-1.5,1.778-1.44,5.08,0.178c0.595,0.285,1.047,0.476,1.928,1.023l1.981-4.104
	c-1.106-0.607-1.666-0.905-2.278-1.214c-5.099-2.451-8.596-1.725-10.542,2.178c-1.856,3.854-0.404,6.924,4.212,9.221l15.515,7.567
	c2.624,1.273,3.897,1.678,5.461,1.583c1.939-0.071,3.79-1.154,4.593-2.844c0.708-1.404,0.535-3.034-0.612-5.009l2.332,0.38
	l1.064-2.201L63.709,175.142"/>
<polyline points="63.257,144.48 89.272,164.076 96.125,154.986 92.723,152.392 88.606,157.913 80.087,151.488 82.77,147.883 
	79.368,145.325 76.66,148.894 69.361,143.397 73.263,138.258 69.872,135.711 63.257,144.48 "/>
<path d="M98.279,113.913c-2.897-2.605-3.605-3.058-5.247-3.355c-1.927-0.309-4.045,0.547-5.598,2.249
	c-1.535,1.737-2.147,3.938-1.672,5.842c0.458,1.57,1,2.249,3.867,4.842l11.904,10.708c2.862,2.57,3.563,3.01,5.229,3.343
	c1.916,0.274,4.057-0.559,5.604-2.272c1.553-1.689,2.154-3.867,1.618-5.794c-0.44-1.606-0.934-2.249-3.819-4.854L98.279,113.913
	 M108.523,129.251c1.386,1.249,1.583,2.189,0.685,3.176c-0.922,1.035-1.862,0.904-3.219-0.333l-14.712-13.266
	c-1.368-1.214-1.565-2.178-0.696-3.189c0.928-0.987,1.862-0.868,3.26,0.369L108.523,129.251z"/>
<path d="M108.88,91.747l21.81,24.213l3.385-3.07l-9.269-10.256c0.482-0.464,0.583-0.559,1.088-1.214l11.322,8.65l3.623-3.248
	l-12.778-9.448c-0.179-3.093-0.833-4.414-3.57-7.436c-1.844-2.082-3.349-3.105-5.057-3.712c-2.427-0.797-4.241-0.167-7.246,2.57
	L108.88,91.747 M121.743,99.255l-6.657-7.365l0.5-0.464c1.784-1.606,2.915-1.476,5.003,0.821c2.017,2.273,2.403,2.76,2.76,3.51
	c0.405,1.012,0.107,1.928-1.142,3.046L121.743,99.255z"/>
<path d="M159.263,73.281l-5.58,3.391l1.981,3.284l1.713-1.023l2.404,4.01c0.927,1.535,1.094,1.797,1.273,2.416
	c0.333,0.904,0.023,1.844-0.786,2.308c-0.63,0.393-1.529,0.274-2.154-0.393c-0.464-0.511-0.493-0.523-1.588-2.343l-8.894-14.79
	c-1.458-2.439-1.493-3.296-0.226-4.021c1.375-0.809,2.243-0.226,4.141,2.915c0.381,0.607,0.613,1.023,1.053,1.963l3.873-2.403
	c-0.565-1.118-0.886-1.63-1.231-2.26c-2.921-4.819-6.276-6.116-10.036-3.844c-3.623,2.142-4.135,5.533-1.458,9.995l8.876,14.766
	c1.511,2.499,2.379,3.534,3.718,4.331c1.636,1,3.795,1.047,5.414,0.095c1.356-0.833,2.076-2.272,2.201-4.498l1.772,1.559l2.094-1.25
	L159.263,73.281"/>
<polyline points="174.921,45.904 170.864,47.915 185.142,77.137 189.205,75.162 174.921,45.904 "/>
<path d="M209.414,58.183l3.819-1.38l3.29,6.616l4.206-1.535l-15.146-29.175l-5.521,2.011l6.948,32.125l4.141-1.499L209.414,58.183
	 M211.342,52.959l-2.945,1.083l-3.694-14.682L211.342,52.959z"/>
<polyline points="290.625,15.052 286.103,15.385 288.382,47.903 292.933,47.581 290.625,15.052 "/>
<polyline points="329.556,15.813 324.963,15.611 323.987,34.767 318.99,15.266 315.111,15.052 313.375,47.594 317.907,47.82 
	318.811,30.781 323.273,48.129 327.843,48.355 329.556,15.813 "/>
<path d="M348.712,41.549c-0.145,0.762-0.215,1.059-0.286,1.726c-0.464,2.772-0.332,4.188,0.522,5.818
	c0.952,1.892,2.548,2.903,4.985,3.332c4.165,0.63,6.914-1.416,7.579-5.664c0.452-2.761-0.213-6.234-1.785-9.602l-1.761-3.664
	c-2.26-4.938-2.402-5.39-2.094-7.401c0.333-1.916,1.166-2.855,2.354-2.677c1.048,0.143,1.619,0.975,1.595,2.332
	c-0.022,0.702-0.07,1.261-0.333,2.95l4.475,0.203c0.404-2.629,0.439-2.808,0.404-4.033c-0.189-3.034-2.13-5.104-5.188-5.592
	c-3.998-0.654-6.997,1.63-7.688,5.866c-0.477,2.855,0.071,5.199,2.214,9.815l1.666,3.653c1.761,3.284,2.094,4.593,1.761,6.747
	c-0.311,2.058-1.166,3.082-2.522,2.855c-1.785-0.286-2.142-1.428-1.594-4.843l0.166-1.309L348.712,41.549"/>
<polyline points="383.502,59.135 387.785,60.693 397.47,34.041 401.635,35.588 403.158,31.591 390.688,27.045 389.213,31.067 
	393.234,32.471 383.502,59.135 "/>
<polyline points="427.786,41.68 423.658,39.693 409.368,68.951 413.461,70.937 427.786,41.68 "/>
<polyline points="433.795,81.265 437.663,83.621 452.261,59.301 456.082,61.657 458.247,57.969 446.895,51.163 444.718,54.792 
	448.382,56.981 433.795,81.265 "/>
<path d="M480.186,73.056l-3.594-2.749l-14.646,19.441c-2.319,3.022-2.735,3.784-2.867,5.474c-0.095,1.927,0.929,3.974,2.736,5.33
	c1.855,1.44,4.093,1.844,5.926,1.179c1.535-0.572,2.165-1.179,4.497-4.248l14.671-19.454l-3.651-2.689l-15.741,20.905
	c-1.132,1.463-2.035,1.796-3.118,0.928c-1.083-0.809-1.083-1.749,0.06-3.236L480.186,73.056"/>
<polyline points="484.398,119.065 487.777,122.1 506.743,101.052 510.04,104.015 512.883,100.838 503.054,92.01 500.199,95.15 
	503.351,98.018 484.398,119.065 "/>
<polyline points="530.136,120.041 504.113,139.662 510.978,148.764 514.358,146.193 510.241,140.756 518.784,134.295 
	521.52,137.889 524.911,135.283 522.186,131.761 529.492,126.276 533.372,131.416 536.75,128.846 530.136,120.041 "/>
<path d="M572.563,212.288c3.652-1.261,4.379-1.713,5.413-2.986c1.132-1.583,1.381-3.843,0.606-6.021
	c-0.785-2.142-2.45-3.724-4.317-4.211c-1.631-0.333-2.463-0.191-6.104,1.118l-15.051,5.497c-3.604,1.333-4.354,1.761-5.39,3.058
	c-1.202,1.606-1.44,3.855-0.679,6.021c0.772,2.189,2.485,3.771,4.391,4.176c1.618,0.31,2.403,0.214,6.092-1.106L572.563,212.288
	 M554.169,214.239c-1.749,0.572-2.666,0.321-3.142-0.952c-0.439-1.297,0.118-2.07,1.844-2.677l18.598-6.758
	c1.736-0.643,2.665-0.357,3.117,0.869c0.451,1.309-0.071,2.07-1.809,2.725L554.169,214.239z"/>
<polyline points="587.745,232.729 555.977,240.058 557.001,244.496 571.542,241.093 572.563,245.484 576.681,244.52 
	575.704,240.153 584.604,238.119 586.032,244.4 590.173,243.413 587.745,232.729 "/>
<polyline points="563.593,321.632 563.318,326.2 591.648,327.616 591.411,332.054 595.645,332.305 596.337,319.073 592.1,318.859 
	591.863,323.083 563.593,321.632 "/>
<polyline points="592.648,354.174 560.475,349.057 558.679,360.312 562.891,360.968 563.985,354.232 574.515,355.911 
	573.813,360.349 578.038,360.968 578.704,356.565 587.745,357.993 586.723,364.382 590.946,365.048 592.648,354.174 "/>
<path d="M561.808,391.711c-1.534-0.463-2.285-0.737-3.308-1.059c-3.165-1.166-3.903-1.986-3.393-3.427
	c0.514-1.368,1.333-1.522,3.986-0.56l16.859,6.104c2.652,1.047,3.226,1.654,2.688,3.023c-0.512,1.51-1.582,1.604-4.997,0.38
	c-0.726-0.286-1.083-0.466-2.047-0.929l-1.57,4.283c1.154,0.571,1.654,0.737,2.393,0.987c5.33,1.928,8.731,0.881,10.256-3.261
	c1.429-3.998-0.285-6.937-5.141-8.709l-16.895-6.151c-4.854-1.761-8.068-0.618-9.496,3.401c-1.511,4.13,0.405,7.129,5.854,9.15
	c0.81,0.262,1.595,0.5,3.248,1.059L561.808,391.711"/>
<polyline points="551.742,424.777 538.345,418.244 536.346,422.302 565.615,436.603 567.601,432.57 555.573,426.668 
	557.216,423.337 569.232,429.167 571.23,425.11 541.937,410.833 539.986,414.913 553.395,421.445 551.742,424.777 "/>
<path d="M427.93,552.183l5.865-2.892l-1.653-3.476l-1.797,0.881l-2.059-4.188c-0.784-1.643-0.929-1.939-1.047-2.534
	c-0.227-0.939,0.118-1.797,0.951-2.237c0.737-0.355,1.583-0.083,2.153,0.584c0.381,0.487,0.417,0.56,1.381,2.498l7.543,15.468
	c1.25,2.559,1.226,3.393-0.107,4.059c-1.428,0.688-2.26,0-3.854-3.309c-0.321-0.584-0.548-1.06-0.881-2.021l-4.093,2.021
	c0.476,1.227,0.75,1.772,1.048,2.367c2.45,5.068,5.711,6.676,9.637,4.761c3.808-1.915,4.605-5.177,2.332-9.853l-7.567-15.504
	c-1.261-2.653-2.021-3.688-3.282-4.64c-1.596-1.132-3.726-1.394-5.379-0.572c-1.464,0.667-2.31,2.118-2.617,4.331l-1.618-1.772
	l-2.189,1.096L427.93,552.183"/>
<polyline points="403.348,559.583 398.756,546.888 394.472,548.434 399.089,561.142 400.825,580.773 405.335,579.096 
	403.574,567.018 410.012,577.442 414.651,575.753 403.348,559.583 "/>
<path d="M88.927,479.247c0-1.893,1.505-3.402,3.379-3.402c1.892,0,3.403,1.511,3.403,3.402c0,1.903-1.511,3.402-3.403,3.402
	C90.433,482.649,88.927,481.15,88.927,479.247"/>
<path d="M576.489,282.868c0.107-1.904,1.738-3.236,3.617-3.13c1.856,0.095,3.285,1.738,3.143,3.617
	c-0.132,1.833-1.737,3.272-3.616,3.13C577.764,286.353,576.348,284.712,576.489,282.868"/>
<path d="M540.486,167.955c0.214-1.88,1.845-3.212,3.725-3.022c1.867,0.179,3.225,1.88,3.011,3.748
	c-0.19,1.844-1.833,3.212-3.735,3.01C541.651,171.513,540.271,169.799,540.486,167.955"/>
<path d="M40.96,220.26c0-1.868,1.517-3.379,3.367-3.379c1.897,0,3.403,1.511,3.403,3.379c0,1.868-1.505,3.415-3.403,3.415
	C42.477,223.674,40.96,222.127,40.96,220.26"/>
<path d="M35.421,372.436c0-1.868,1.522-3.378,3.42-3.378c1.85,0,3.374,1.51,3.374,3.378c0,1.855-1.523,3.368-3.374,3.368
	C36.944,375.805,35.421,374.293,35.421,372.436"/>
<g>
	<defs>
		<path id="XMLID_60_" d="M291.809,158.246v-4.581c-6.456-6.949-22.797-28.139-8.323-48.009c2.439-17.99,11-24.2,13.427-27.377
			c2.392-3.212,3.218-12.088,8.299-10.708c5.117,1.309,5.902,2.653,7.806,3.974c1.856,1.356,1.856,8.34,2.141,13.183
			c0.263,4.843,0.785,13.659,6.151,19.311c5.379,5.64,12.625,23.095,3.51,34.326c-8.269,10.28-7.709,16.931-6.34,19.882
			L291.809,158.246"/>
	</defs>
	<clipPath id="XMLID_67_">
		<use xlink:href="#XMLID_60_" />
	</clipPath>
	<path clip-path="url(#XMLID_67_)" fill="none" stroke="#000000" stroke-miterlimit="3.8637" d="M304.7,67.261
		c1.606,2.451-0.553,38.122-0.809,43.749c-0.286,5.617-10.489,14.754-11.815,29.258 M283.736,102.646
		c-0.53,8.887-2.665,30.638,16.652,45.117 M311.648,70.747c-1.32,1.892-3.938,22.939,0.286,46.962
		c1.868,10.72-3.213,12.897-8.043,22.559c-4.837,9.661-6.979,14.801-5.92,20.655 M322.952,140.827
		c-7.009,7.71-12.089,11.779-12.089,15.54c0,3.748,0,8.066,0,8.066"/>
</g>
<path fill="none" stroke="#000000" stroke-miterlimit="3.8637" d="M291.809,158.246v-4.581c-6.456-6.949-22.797-28.139-8.323-48.009
	c2.439-17.99,11-24.2,13.427-27.377c2.392-3.212,3.218-12.088,8.299-10.708c5.117,1.309,5.902,2.653,7.806,3.974
	c1.856,1.356,1.856,8.34,2.141,13.183c0.263,4.843,0.785,13.659,6.151,19.311c5.379,5.64,12.625,23.095,3.51,34.326
	c-8.269,10.28-7.709,16.931-6.34,19.882L291.809,158.246L291.809,158.246z"/>
<path d="M145.717,420.304c2.011,0.237,3.225,0.272,4.522-0.536c0.416-0.31,1.546-1.118,1.868-3.463
	c0.077-0.511,0.369-2.629-1.261-4.104c-1.113-0.986-2.517-1.213-3.819-1.366l-5.354-0.774l-1.916,13.493l3.474,0.511l0.553-4.057
	L145.717,420.304 M146.062,413.521c1.344,0.202,2.766,0.381,2.522,2.272c-0.119,0.784-0.541,1.345-1.255,1.534
	c-0.44,0.131-0.946,0.06-1.749-0.048l-1.392-0.214l0.56-3.713L146.062,413.521z"/>
<path d="M156.366,411.927l-0.726,13.588l3.468,0.188l0.244-4.604l1.773,0.107l2.225,4.724l3.808,0.166l-2.535-5.307
	c1.898-0.44,2.886-2.035,2.999-3.748c0.048-1.512-0.488-2.712-1.279-3.45c-1.303-1.272-3.129-1.356-4.611-1.416L156.366,411.927
	 M161.03,414.984c0.875,0.024,1.862,0.097,2.392,0.478c0.226,0.166,0.625,0.631,0.606,1.392c-0.035,0.535-0.286,1.214-1.005,1.44
	c-0.488,0.236-1.053,0.189-2.351,0.143l-1.171-0.096l0.178-3.428L161.03,414.984z"/>
<path d="M177.277,411.583c-1.22,0.059-2.874,0.451-4.337,1.832c-2.004,1.914-2.076,4.33-2.004,5.604
	c0.119,1.893,0.875,3.665,2.237,4.95c1.874,1.714,3.979,1.735,5.069,1.666c1.243-0.097,2.891-0.429,4.336-1.893
	c2.017-1.938,2.064-4.366,1.969-5.593C184.285,414.332,181.572,411.273,177.277,411.583 M177.456,414.532
	c2.207-0.2,3.271,1.596,3.45,3.832c0.053,1.154-0.083,2.367-0.779,3.248c-0.315,0.381-1.005,0.977-2.064,1.047
	c-2.136,0.132-3.296-1.583-3.462-3.902C174.463,416.497,175.379,414.723,177.456,414.532z"/>
<path d="M195.696,416.497l0.262,2.712l2.499-0.31c-0.036,1.404-1.452,2.035-2.582,2.177c-2.701,0.263-3.457-2.225-3.582-3.747
	c-0.119-1.179,0.012-2.345,0.792-3.236c0.488-0.606,1.374-1.035,2.225-1.165c2.017-0.167,3.07,1.309,3.367,1.735l2.249-2.104
	c-0.737-0.761-2.546-2.903-6.271-2.499c-4.366,0.477-6.372,3.974-5.99,7.829c0.44,4.104,3.337,6.687,7.371,6.234
	c2.213-0.227,2.957-1.332,3.242-1.771l0.119,1.201l2.629-0.321l-0.744-7.329L195.696,416.497"/>
<path d="M206.249,408.988l1.642,13.528l3.474-0.405l-0.565-4.567l1.755-0.227l3.01,4.295l3.748-0.512l-3.367-4.771
	c1.761-0.798,2.481-2.521,2.272-4.261c-0.167-1.438-0.934-2.558-1.82-3.165c-1.523-0.999-3.332-0.819-4.825-0.595L206.249,408.988
	 M211.395,411.213c0.862-0.118,1.855-0.227,2.445,0.07c0.226,0.096,0.72,0.44,0.797,1.237c0.071,0.584-0.06,1.262-0.731,1.631
	c-0.429,0.249-1.006,0.333-2.273,0.512l-1.16,0.131l-0.435-3.438L211.395,411.213z"/>
<polyline points="227.666,417.174 227.249,414.032 232.639,413.354 232.329,410.737 226.964,411.379 226.678,409.202 
	233.466,408.392 233.133,405.622 222.93,406.893 224.566,420.433 235.352,419.113 235.025,416.282 227.666,417.174 "/>
<path d="M244.615,412.677c1.499,0.06,1.939,0.083,2.344,0.5c0.106,0.142,0.172,0.345,0.202,0.547
	c0.03,0.368-0.106,0.678-0.404,0.976c-0.476,0.394-1.338,0.571-1.767,0.596c-2.213,0.237-3.272-0.894-3.891-1.512l-2.368,2.31
	c1.708,1.975,4.54,2.248,6.413,2.011c2.88-0.262,5.8-1.798,5.432-5.188c-0.321-2.893-2.433-3.298-3.052-3.451
	c-0.589-0.083-0.768-0.154-2.862-0.237c-1.38-0.084-2.028-0.096-2.374-0.346c-0.202-0.145-0.363-0.439-0.422-0.667
	c-0.078-0.832,0.814-1.26,1.796-1.416c1.85-0.154,2.962,0.893,3.527,1.416l2.196-2.13c-1.601-1.736-3.945-2.165-6.026-1.95
	c-2.82,0.321-5.2,1.809-4.902,4.854c0.113,1.07,0.637,2.106,1.565,2.736c1.076,0.737,2.438,0.821,3.652,0.916L244.615,412.677"/>
<path d="M260.998,411.379c1.505,0.227,1.958,0.262,2.303,0.737c0.101,0.119,0.161,0.346,0.161,0.523
	c0,0.381-0.167,0.714-0.505,0.904c-0.5,0.381-1.369,0.486-1.803,0.486c-2.219,0.037-3.189-1.116-3.719-1.854l-2.569,2.104
	c1.522,2.106,4.289,2.606,6.205,2.57c2.891-0.071,5.919-1.32,5.86-4.711c-0.042-2.915-2.136-3.522-2.767-3.7
	c-0.547-0.179-0.761-0.179-2.778-0.477c-1.422-0.18-2.022-0.274-2.368-0.583c-0.214-0.18-0.333-0.417-0.333-0.68
	c0-0.784,0.905-1.178,1.892-1.226c1.85-0.022,2.885,1.166,3.397,1.678l2.338-1.892c-1.44-1.915-3.712-2.546-5.783-2.499
	c-2.861,0.049-5.383,1.345-5.336,4.391c0.018,1.107,0.482,2.154,1.309,2.868c1.023,0.811,2.397,1.071,3.599,1.261L260.998,411.379"
	/>
<path fill="#030202" d="M283.557,437.186l-2.938,14.219l3.403-0.476l0.369-1.929l5.009-0.666l0.881,1.653l3.653-0.476l-6.99-12.779
	L283.557,437.186 M285.86,441.362l2.32,4.546l-3.271,0.513L285.86,441.362z"/>
<polyline fill="#030202" points="306.33,435.759 306.474,443.875 301.363,435.854 298.008,435.925 298.258,449.549 301.512,449.466 
	301.381,441.304 306.443,449.358 309.846,449.347 309.614,435.687 306.33,435.759 "/>
<path fill="#030202" d="M317.395,435.831l-1.166,13.61l3.617,0.311c2.354,0.189,3.784,0.333,5.033-0.049
	c2.392-0.665,3.235-2.568,3.557-3.427c0.286-0.819,0.478-1.652,0.572-2.485c0.201-2.429-0.512-4.261-1.44-5.271
	c-1.582-1.868-3.962-2.083-7.353-2.392L317.395,435.831 M321.965,439.28c1.07,0.144,2.796,0.333,3.284,2.464
	c0.143,0.644,0.143,1.249,0.094,1.892c-0.047,0.523-0.118,0.881-0.249,1.333c-0.727,2.035-2.297,1.976-3.808,1.903l-1.415-0.165
	l0.665-7.546L321.965,439.28z"/>
<path d="M364.036,413.712c1.478,0.38,1.868,0.522,2.143,1.059c0.06,0.144,0.084,0.311,0.06,0.56
	c-0.035,0.346-0.272,0.618-0.619,0.82c-0.581,0.347-1.438,0.238-1.844,0.154c-2.201-0.309-2.95-1.605-3.401-2.402l-2.855,1.63
	c1.178,2.355,3.831,3.319,5.711,3.581c2.867,0.356,6.044-0.356,6.544-3.783c0.405-2.867-1.521-3.795-2.13-4.046
	c-0.535-0.297-0.726-0.356-2.725-0.928c-1.332-0.394-1.929-0.631-2.213-0.917c-0.168-0.213-0.263-0.475-0.25-0.771
	c0.143-0.763,1.105-1.048,2.081-0.905c1.82,0.262,2.665,1.548,3.105,2.237l2.606-1.559c-1.12-2.047-3.272-3.035-5.366-3.38
	c-2.796-0.345-5.485,0.512-5.902,3.51c-0.142,1.083,0.107,2.263,0.845,3.069c0.857,0.988,2.166,1.416,3.296,1.785L364.036,413.712"
	/>
<polyline points="378.243,418.102 378.671,415.009 384.038,415.698 384.43,413.105 379.075,412.32 379.361,410.167 386.143,411.095 
	386.524,408.392 376.387,406.965 374.459,420.542 385.238,421.993 385.607,419.149 378.243,418.102 "/>
<path d="M391.926,408.833l-1.189,13.575l3.45,0.273l0.404-4.58l1.736,0.142l2.082,4.809l3.783,0.393l-2.318-5.4
	c1.902-0.44,2.938-1.951,3.082-3.712c0.165-1.487-0.369-2.69-1.118-3.498c-1.286-1.286-3.082-1.395-4.605-1.523L391.926,408.833
	 M396.472,412.034c0.868,0.083,1.854,0.202,2.402,0.606c0.189,0.167,0.605,0.595,0.501,1.392c-0.024,0.524-0.312,1.19-1.024,1.43
	c-0.499,0.166-1.071,0.166-2.354,0.07l-1.154-0.203l0.272-3.365L396.472,412.034z"/>
<polyline points="414.415,410.689 411.796,419.709 409.178,410.689 405.775,410.689 409.892,424.312 413.7,424.312 417.841,410.689 
	414.415,410.689 "/>
<rect x="422.147" y="410.737" width="3.616" height="13.623"/>
<path d="M443.111,413.105c-0.381-0.465-1.011-1.309-2.415-2.011c-0.797-0.357-1.761-0.561-2.938-0.561
	c-1.118,0-3.201,0.202-4.878,2.012c-1.631,1.785-1.773,3.843-1.773,4.842c0,3.713,2.355,7.294,6.854,7.294
	c1.845,0,3.628-0.714,4.914-2.022c0.07-0.143,0.213-0.25,0.345-0.429l-2.438-2.166c-0.382,0.536-1.143,1.595-2.713,1.595
	c-1.726,0-3.309-1.309-3.309-4.224c0-2.451,1.404-3.914,3.021-3.914c1.522,0,2.332,1.035,2.832,1.643L443.111,413.105"/>
<polyline points="450.965,420.35 450.37,417.233 455.676,416.21 455.177,413.545 449.847,414.604 449.417,412.462 456.128,411.142 
	455.629,408.441 445.54,410.403 448.086,423.801 458.794,421.755 458.222,418.946 450.965,420.35 "/>
<path d="M163.35,425.932l3.808,0.166l-2.535-5.307c1.898-0.44,2.886-2.035,2.999-3.748c0.048-1.512-0.488-2.712-1.279-3.45
	c-1.303-1.272-3.129-1.356-4.611-1.416l-5.366-0.25 M156.366,411.927l-0.726,13.588l3.468,0.188l0.244-4.604 M161.03,414.984
	c0.875,0.024,1.862,0.097,2.392,0.478c0.226,0.166,0.625,0.631,0.606,1.392c-0.035,0.535-0.286,1.214-1.005,1.44
	c-0.488,0.236-1.053,0.189-2.351,0.143l-1.171-0.096l0.178-3.428L161.03,414.984z"/>
<line stroke="#000000" stroke-miterlimit="3.8637" x1="423.957" y1="424.36" x2="423.957" y2="410.737"/>
<path fill="none" stroke="#000000" stroke-linejoin="round" stroke-miterlimit="3.8637" d="M255.317,425.8L255.317,425.8
	c6.437-0.547,19.941-2.082,20.655,2.678c1.07,6.995-23.071,19.049-30.608,24.438 M351.638,425.003L351.638,425.003
	c-9.125-2.986-17.562-3.533-21.727,0.535c-9.672,9.398,28.984,11.803,31.936,28.188"/>
<path fill="none" stroke="#000000" stroke-linejoin="round" stroke-miterlimit="3.8637" d="M134.188,339.086
	c-4.313,6.115-6.996,9.662-6.996,16.371 M484.422,336.136c3.475,6.448,7.77,19.321-11.826,23.06"/>
<path fill="none" stroke="#000000" stroke-linejoin="round" stroke-miterlimit="3.8637" d="M109.874,361.645
	c-10.75-4.01-8.073-10.757-7.008-14.457c1.059-3.76,5.907-13.457,9.667-18.834c9.126-3.712,15.545,2.701,21.482,10.792
	c9.12-4.831,30.578-3.272,31.649,27.877c-11.255,13.979-28.972,19.597-25.23,34.374c30.602,10.208,125.614-13.98,134.734-0.584
	c-0.547,13.98,1.595,22.619,1.077,29.579c10.726,0,38.08-2.475,52.024-0.844c-0.548-14.469-1.022-28.735-1.022-28.735
	c14.468-20.904,103.537,23.333,152.393-12.1c-7.509-8.614-6.354-5.557-12.875-6.129c-6.4-0.534-32.208-15.014-13.397-42.881
	c11.494-17.084,27.927-9.709,31.162-3.295c9.639-10.709,15.551-12.291,22.499-6.949c2.154,7.52,1.618,10.732,2.689,17.17
	c1.082,6.46-1.596,12.861-16.11,19.857c4.331-7.484,4.854-10.994,5.378-17.156c-13.409,11.268-28.983,20.393-32.221,11.803
	c-3.199-8.592,15.611-10.245,6.474-19.348c-9.127-9.078-25.225,20.406-1.083,38.67c9.269,6.996,8.59,9.113,8.031,18.822
	c-0.512,9.625,0,14.479,0,20.894c0,6.449-7.234,8.103-19.822,10.221c-32.209,5.366-80.525-0.56-108.987-5.39
	c4.843,13.422,11.804,22.522,10.757,29.007c-1.071,6.426-4.831,7.509-33.314,3.188c-28.431-4.282-56.85,2.178-71.372,6.475
	c-14.504,4.259-18.252-3.237-13.415-8.592c4.831-5.379,10.75-18.252,11.286-29.009c-27.39-1.069-90.789,18.109-127.239,1.097
	c-4.004-1.916-2.677-8.593-3.207-15.053c-0.53-6.496-2.13-19.347,3.801-23.605c5.884-4.319,14.462-9.674,24.106-11.243
	c2.154-8.067,0.553-9.696-0.547-13.479c-7.472,4.83-25.218,3.783-25.218-7.996c-5.354-5.891-8.043-6.983-15.027-7.521
	C110.153,352.375,109.303,355.792,109.874,361.645z"/>
<path d="M101.438,354.102c0.547-6.309,8.793-7.781,12.023-6.497c1.25,0.5-5.211,4.652-3.141,14.563
	C110.32,362.168,101.23,356.387,101.438,354.102"/>
<path d="M133.385,364.025c-1.606-0.655-7.889-5.51-1.594-10.327c9.536-7.246,19.079,4.461,21.221,8.994
	c0,0,2.332,2.797-10.048,3.605C135.478,366.773,133.385,364.025,133.385,364.025"/>
<path d="M497.604,349.069c4.475-3.998,7.401-5.318,12.173-4.236c2.081,0.44-0.82,10.316-4.117,14.028
	c-4.663,5.235-11.588,7.032-10.743,5.378C501.865,350.342,497.604,349.069,497.604,349.069"/>
<path d="M139.893,394.852c-1.88,5.271,4.123,8.281,4.123,8.281s-5.354-0.44-13.617-2.726c-4.759-1.333-5.931-3.427-4.557-7.198
	c3.593-9.779,28.924-16.121,28.924-16.121S143.611,384.538,139.893,394.852"/>
<line fill="none" stroke="#000000" stroke-miterlimit="3.8637" x1="327.7" y1="413.177" x2="275.074" y2="413.177"/>
<path fill="none" stroke="#000000" stroke-miterlimit="3.8637" d="M248.332,396.032c0-1.19-0.613-3.56,2.148-4.854h111.105
	c2.416,0.345,2.143,4.198,2.143,5.378"/>
<path fill="none" stroke="#000000" stroke-miterlimit="3.8637" d="M261.409,390.188v-9.066c0-1.176,0.963-2.129,2.147-2.129h10.649
	c1.178,0,2.135,0.953,2.135,2.129v9.066"/>
<line fill="none" stroke="#000000" stroke-miterlimit="3.8637" x1="262.92" y1="373.841" x2="274.961" y2="373.841"/>
<line fill="none" stroke="#000000" stroke-miterlimit="3.8637" x1="300.5" y1="373.924" x2="312.542" y2="373.924"/>
<path fill="none" stroke="#000000" stroke-miterlimit="3.8637" d="M298.727,391.188v-10.042c0-1.188,0.958-2.13,2.153-2.13h10.648
	c1.165,0,2.129,0.939,2.129,2.13v10.042"/>
<path fill="none" stroke="#000000" stroke-miterlimit="3.8637" d="M335.445,390.629v-9.508c0-1.176,0.964-2.129,2.153-2.129h10.649
	c1.178,0,2.142,0.953,2.142,2.129v9.508"/>
<line fill="none" stroke="#000000" stroke-miterlimit="3.8637" x1="337.1" y1="373.901" x2="349.128" y2="373.901"/>
<path fill="none" stroke="#000000" stroke-linejoin="round" stroke-miterlimit="3.8637" d="M266.852,362.55
	c1.416-0.048,3.712-0.571,5.503-1.214c1.184-0.418,2.189-1.477,2.189-1.477l-0.089,14.254c0,0-0.196,3.189,1.922,5.309v11.658
	h-15.01v-11.658c2.094-2.118,1.898-5.309,1.898-5.309l0.059-11.053C263.324,363.061,263.961,362.681,266.852,362.55z"/>
<path fill="none" stroke="#000000" stroke-miterlimit="3.8637" d="M269.547,353.174c-4.759,1.771-6.205,1.689-6.205,1.689
	l-0.012-11.959c0,0,2.297-2.51,5.253-4.224c3.248-1.929,5.836-3.295,5.836-3.295l0.012,13.301
	C274.432,348.687,273.842,351.591,269.547,353.174z"/>
<path fill="none" stroke="#000000" stroke-linejoin="round" stroke-miterlimit="3.8637" d="M269.113,330.64
	c2.035-1.153,4.598-2.69,5.252-4.13c0,0,0.089-2.153,0.089-4.557c0-1.846,0.054-3.463,0.72-5.451
	c0.886-0.451,1.344-1.629,1.522-2.926c0.464-0.666,1.071-1.439,1.785-2.262h-17.722c0.422,0.477-0.708,0.952-0.369,1.333
	c0.137,1.903,0.606,3.629,1.981,3.998c0.006,1.07,0.297,1.856,0.702,2.427c0.125,0.965,0.125,1.916,0.19,2.881
	c0.042,0.797,0.065,11.777,0.065,11.777S267.097,331.769,269.113,330.64z"/>
<path fill="none" stroke="#000000" stroke-linejoin="round" stroke-miterlimit="3.8637" d="M311.542,322.87
	c0.096-1.785,0-4.379,0.69-6.367c0.856-0.451,1.31-1.629,1.498-2.926c0.478-0.666,1.061-1.439,1.811-2.262h-19.265
	c0.428,0.477,0.81,0.952,1.13,1.333c0.149,1.903,0.625,3.63,1.975,3.998c0.036,1.07,0.304,1.856,0.75,2.427
	c0.095,0.965,0.078,2.772,0.172,3.726c0,0,1.518,0.464,5.83,0.403C310.447,323.12,311.542,322.87,311.542,322.87z"/>
<path fill="none" stroke="#000000" stroke-linejoin="round" stroke-miterlimit="3.8637" d="M311.851,331.555l0.095,42.298
	c0,0-0.214,3.188,1.903,5.33v11.897h-15.021v-11.897c2.1-2.142,1.91-5.33,1.91-5.33l0.065-42.44c0,0,1.029,0.203,5.217,0.203
	c5.331,0,5.854-0.144,5.854-0.144"/>
<path fill="none" stroke="#000000" stroke-linejoin="round" stroke-miterlimit="3.8637" d="M337.457,327.379
	c0,0-0.023-4.51-0.096-5.51c-0.132-1.797-0.061-3.461-0.714-5.449c-0.893-0.44-1.345-1.617-1.522-2.938
	c-0.452-0.666-1.082-1.438-1.763-2.249h18.776c-0.428,0.477-0.357,0.952-0.69,1.333c-0.167,1.88-0.617,3.63-1.975,3.986
	c-0.013,1.059-0.333,1.866-0.715,2.438c-0.143,0.963-0.143,1.902-0.19,2.879c-0.047,0.81-0.095,11.91-0.095,11.91
	s-0.977-1.226-3.093-1.928c-2.118-0.714-3.962-1.154-6.093-2.629c-0.977-0.655-1.855-2.321-1.855-2.321"/>
<path fill="none" stroke="#000000" stroke-miterlimit="3.8637" d="M343.226,337.86c-4.676-1.949-5.878-2.808-5.878-2.808v11.935
	c0,0-1.416,3.319,3.439,6.057c3.295,1.855,7.638,2.427,7.638,2.427v-12.457C348.426,343.013,347.712,339.728,343.226,337.86z"/>
<path fill="none" stroke="#000000" stroke-miterlimit="3.8637" d="M337.433,359.979c-0.048,12.637-0.096,14.135-0.096,14.135
	s0.226,3.189-1.88,5.309v11.658h14.991v-11.658c-2.143-2.118-1.881-5.309-1.881-5.309s-0.047,2.272-0.095-10.363
	c0,0-1.047,0.037-5.985-1.678C337.957,360.491,337.433,359.979,337.433,359.979z"/>
<path fill="none" stroke="#000000" stroke-linecap="round" stroke-linejoin="round" stroke-miterlimit="3.8637" d="M260.344,311.351
	c0,2.463,0.393,5.366,2.552,5.366c1.196,0,1.838-0.166,2.493-1.273 M262.372,316.502c0,5.248,6.288,4.272,6.288,1.488
	 M260.344,311.351c0,2.463,0.393,5.366,2.552,5.366c1.196,0,1.838-0.166,2.493-1.273c0,0,1.112,2.596,3.207,2.596
	c2.082,0,3.207-2.596,3.207-2.596c0.654,1.107,1.279,1.273,2.486,1.273c2.154,0,2.546-2.903,2.546-5.366"/>
<path fill="none" stroke="#000000" stroke-miterlimit="3.8637" d="M263.075,311.28c0,2.082,0.19,4.164,2.361,4.164
	c2.344,0,2.083-2.533,2.083-4.093C266.382,311.351,264.425,311.28,263.075,311.28z"/>
<path fill="none" stroke="#000000" stroke-miterlimit="3.8637" d="M274.848,316.502c0,5.248-6.318,4.272-6.318,1.488"/>
<path fill="none" stroke="#000000" stroke-miterlimit="3.8637" d="M274.093,311.28c0,2.082-0.149,4.164-2.344,4.164
	c-2.362,0-2.094-2.533-2.094-4.093C270.808,311.351,272.76,311.28,274.093,311.28z"/>
<path fill="none" stroke="#000000" stroke-linejoin="round" stroke-miterlimit="3.8637" d="M297.496,311.638
	c0,2.498,0.417,5.377,2.57,5.377c1.207,0,1.79-0.153,2.457-1.272c0,0,1.154,2.617,3.207,2.617c2.082,0,3.248-2.617,3.248-2.617
	c0.702,1.119,1.291,1.272,2.48,1.272c2.13,0,2.534-2.879,2.534-5.377"/>
<path fill="none" stroke="#000000" stroke-linejoin="round" stroke-miterlimit="3.8637" d="M299.524,316.802
	c0,5.233,6.288,4.247,6.288,1.499"/>
<path fill="none" stroke="#000000" stroke-miterlimit="3.8637" d="M300.245,311.577c0,2.071,0.143,4.166,2.355,4.166
	c2.35,0,2.083-2.547,2.083-4.104C303.54,311.638,301.577,311.577,300.245,311.577z"/>
<path fill="none" stroke="#000000" stroke-miterlimit="3.8637" d="M312.006,316.802c0,5.233-6.324,4.247-6.324,1.499"/>
<path fill="none" stroke="#000000" stroke-miterlimit="3.8637" d="M311.257,311.577c0,2.071-0.144,4.166-2.356,4.166
	c-2.338,0-2.07-2.547-2.07-4.104C307.96,311.638,309.913,311.577,311.257,311.577z"/>
<path fill="none" stroke="#000000" stroke-linecap="round" stroke-linejoin="round" stroke-miterlimit="3.8637" d="M343.001,317.918
	c0,2.763,6.28,3.772,6.28-1.475"/>
<path fill="none" stroke="#000000" stroke-linecap="round" stroke-linejoin="round" stroke-miterlimit="3.8637" d="M334.815,311.293
	c0,2.474,0.393,5.354,2.559,5.354c1.2,0,1.819-0.145,2.474-1.273c0,0,1.132,2.617,3.201,2.617c2.094,0,3.213-2.617,3.213-2.617
	c0.643,1.131,1.297,1.273,2.498,1.273c2.143,0,2.547-2.88,2.547-5.354"/>
<path fill="none" stroke="#000000" stroke-miterlimit="3.8637" d="M348.582,311.208c0,2.084-0.203,4.166-2.368,4.166
	c-2.355,0-2.069-2.534-2.069-4.08C345.262,311.293,347.225,311.208,348.582,311.208z"/>
<path fill="none" stroke="#000000" stroke-miterlimit="3.8637" d="M336.813,316.444c0,5.247,6.306,4.236,6.306,1.475"/>
<path fill="none" stroke="#000000" stroke-miterlimit="3.8637" d="M337.552,311.208c0,2.084,0.154,4.166,2.354,4.166
	c2.355,0,2.095-2.534,2.095-4.08C340.847,311.293,338.884,311.208,337.552,311.208z"/>
<path fill="none" stroke="#000000" stroke-miterlimit="3.8637" d="M277.305,311.482c6.717,13.04,10.339,20.168,29.133,20.168
	c21.19,0,24.271-10.875,28.188-19.514c-11.673,8.46-18.918,11.019-28.746,11.019C296.11,323.155,289.263,321.43,277.305,311.482z"/>
<path fill="none" stroke="#000000" stroke-miterlimit="3.8637" d="M337.291,323.048c-3.596,4.141-5.664,8.959,0.226,12.1
	c4.735,2.548,10.196,3.642,10.791,7.925c2.713-2.701,3.582-7.875-1.95-10.768C343.976,331.043,335.006,329.711,337.291,323.048z"/>
<path fill="none" stroke="#000000" stroke-linecap="round" stroke-linejoin="round" stroke-miterlimit="3.8637" d="M337.194,346.927
	c-2.712,2.38-2.974,6.461-2.618,8.864c0.357,2.32,7.567,12.063,39.432,6.473c-4.558-0.714-4.711-0.939-5.974-2.178
	c2.355-2.498,5.045-2.854,5.771-5.211c-10.28,3.07-39.799,1.986-36.349-8.008L337.194,346.927z"/>
<path fill="none" stroke="#000000" stroke-linejoin="round" stroke-miterlimit="3.8637" d="M274.622,321.263
	c1.624,4.985-0.393,7.413-8.442,10.744c-8.049,3.354-5.372,10.077-3.605,12.243c1.588-4.474,11.047-7.14,14.04-11.019
	C279.322,329.711,278.132,324.12,274.622,321.263z"/>
<path fill="none" stroke="#000000" stroke-linejoin="round" stroke-miterlimit="3.8637" d="M274.622,345.547
	c2.832,3.783,3.753,13.386-2.291,15.683c-10.732,4.08-16.58-2.903-32.286,9.339c5.8-11.088,14.89-13.968,19.209-14.837
	C264.336,354.673,276.115,353.733,274.622,345.547z"/>
<g>
	<defs>
		<path id="XMLID_59_" d="M353.805,309.258v0.892c0,0.571-0.478,1.048-1.071,1.048h-92.871c-0.553,0-1.071-0.477-1.071-1.048v-0.892
			v-0.215c-1.042-0.119-1.88-1.012-1.88-2.131v-5.021c0-0.167-1.309-0.38-1.326-1.487v-1.237c0-0.583,0.482-1.082,1.064-1.082
			h98.297c0.571,0,1.047,0.499,1.047,1.082v1.237c0,0.584-0.451,1.202-1.012,1.202c0,0-0.154,0.118-0.154,0.285v5.021
			c0,0.785-0.333,1.513-1,1.894C353.827,308.806,353.805,309.043,353.805,309.258"/>
	</defs>
	<clipPath id="XMLID_68_">
		<use xlink:href="#XMLID_59_" />
	</clipPath>
	<path clip-path="url(#XMLID_68_)" fill="none" stroke="#000000" stroke-miterlimit="3.8637" d="M259.862,308.127h92.871
		c0.595,0,1.071,0.513,1.071,1.131v0.892c0,0.571-0.478,1.048-1.071,1.048h-92.871c-0.553,0-1.071-0.477-1.071-1.048v-0.892
		C258.791,308.64,259.309,308.127,259.862,308.127z"/>
</g>
<g>
	<defs>
		<path id="XMLID_58_" d="M353.805,309.258v0.892c0,0.571-0.478,1.048-1.071,1.048h-92.871c-0.553,0-1.071-0.477-1.071-1.048v-0.892
			v-0.215c-1.042-0.119-1.88-1.012-1.88-2.131v-5.021c0-0.167-1.309-0.38-1.326-1.487v-1.237c0-0.583,0.482-1.082,1.064-1.082
			h98.297c0.571,0,1.047,0.499,1.047,1.082v1.237c0,0.584-0.451,1.202-1.012,1.202c0,0-0.154,0.118-0.154,0.285v5.021
			c0,0.785-0.333,1.513-1,1.894C353.827,308.806,353.805,309.043,353.805,309.258"/>
	</defs>
	<clipPath id="XMLID_69_">
		<use xlink:href="#XMLID_58_" />
	</clipPath>
	<path clip-path="url(#XMLID_69_)" fill="none" stroke="#000000" stroke-miterlimit="3.8637" d="M256.388,298.086h98.511
		c0.606,0,1.071,0.499,1.071,1.082v0.845c0,0.583-0.465,1.06-1.071,1.06h-98.511c-0.595,0-1.064-0.477-1.064-1.06v-0.845
		C255.323,298.585,255.793,298.086,256.388,298.086z"/>
</g>
<path fill="none" stroke="#000000" stroke-miterlimit="3.8637" d="M353.805,309.258v0.892c0,0.571-0.478,1.048-1.071,1.048h-92.871
	c-0.553,0-1.071-0.477-1.071-1.048v-0.892v-0.215c-1.042-0.119-1.88-1.012-1.88-2.131v-5.021c0-0.167-1.309-0.38-1.326-1.487v-1.237
	c0-0.583,0.482-1.082,1.064-1.082h98.297c0.571,0,1.047,0.499,1.047,1.082v1.237c0,0.584-0.451,1.202-1.012,1.202
	c0,0-0.154,0.118-0.154,0.285v5.021c0,0.785-0.333,1.513-1,1.894C353.827,308.806,353.805,309.043,353.805,309.258z"/>
<path fill="none" stroke="#000000" stroke-miterlimit="3.8637" d="M275.699,297.645c0-16.682,13.522-29.104,30.18-29.104
	c16.681,0,30.232,12.421,30.232,29.104c0,0.416,13.136,0.13,13.136,0.13c-0.131-23.891-19.523-41.167-43.458-41.167
	c-23.945,0-43.333,17.276-43.333,41.167L275.699,297.645z"/>
</svg>
